<?xml version="1.0" encoding="UTF-8" standalone="no"?>
<svg
   xmlns:dc="http://purl.org/dc/elements/1.1/"
   xmlns:cc="http://creativecommons.org/ns#"
   xmlns:rdf="http://www.w3.org/1999/02/22-rdf-syntax-ns#"
   xmlns:svg="http://www.w3.org/2000/svg"
   xmlns="http://www.w3.org/2000/svg"
   viewBox="0 0 900.00002 1100"
   id="svg16"
   height="1100"
   width="900"
   version="1.1">
  <metadata
     id="metadata22">
    <rdf:RDF>
      <cc:Work
         rdf:about="">
        <dc:format>image/svg+xml</dc:format>
        <dc:type
           rdf:resource="http://purl.org/dc/dcmitype/StillImage" />
        <dc:title></dc:title>
      </cc:Work>
    </rdf:RDF>
  </metadata>
  <defs
     id="defs20" />
  <g
     transform="translate(18.679373,72.0185)"
     id="g27">
    <path
       d="M -18.679373,-71.947617 V 827.98137 H 881.32063 V -72.018487 Z"
       style="fill:#ececed;fill-rule:evenodd;stroke-width:0.35277778"
       id="path10" />
    <path
       d="M -18.679373,516.62927 H 401.33103 V 126.68465 h 120.0293 v 449.96449 l 179.966,-60.00569 179.9943,-0.0141 v -30.00988 l -180.0368,0.0141 V 96.674763 l -179.966,-60.00561 v 60.00561 H 371.32033 V 486.63357 H -18.636673 Z"
       style="fill:#e30016;fill-rule:evenodd;stroke-width:0.35277778"
       id="path12" />
    <path
       d="M -18.679373,1025.0463 V 855.70699 h 7.1892 v 92.57221 c 4.0439995,-8.27877 10.3720995,-14.9019 18.9840995,-19.86919 8.6120005,-4.96732 17.5609005,-7.45091 26.8471005,-7.45091 14.8276,0 27.4461,5.23071 37.8555,15.69212 10.4094,10.46138 15.6143,22.99251 15.6143,37.59327 0,14.6008 -5.2049,27.13191 -15.6143,37.59331 -10.4094,10.4614 -23.0279,15.6921 -37.8555,15.6921 -8.9863,0 -17.7483,-2.446 -26.2855005,-7.338 -8.53719995,-4.892 -15.0523,-11.4774 -19.5456995,-19.7562 v 24.6106 z m 6.7398,-50.576 c 0,12.64402 4.6058995,23.59459 13.8168995,32.8518 9.2110005,9.2572 20.1447005,13.8858 32.8006005,13.8858 12.6562,0 23.4774,-4.6286 32.4636,-13.8858 8.9867,-9.25721 13.4801,-20.24539 13.4801,-32.96469 0,-12.71919 -4.5308,-23.74511 -13.5922,-33.0776 -9.0615,-9.33249 -19.8826,-13.99868 -32.4637,-13.99868 -12.5811,0 -23.4774,4.70386 -32.6884005,14.11157 -9.211,9.4077 -13.8168995,20.43362 -13.8168995,33.0776 z M 210.02683,923.44269 v 101.60361 h -7.1889 v -25.288 c -4.1939,8.5799 -10.4846,15.3534 -18.8719,20.3207 -8.3872,4.9673 -17.3739,7.4509 -26.9593,7.4509 -14.678,0 -27.2591,-5.2307 -37.7433,-15.6921 -10.4842,-10.4614 -15.7265,-22.99251 -15.7265,-37.59331 0,-14.60076 5.2423,-27.13189 15.7265,-37.59327 10.4842,-10.46141 23.0653,-15.69212 37.7433,-15.69212 9.5854,0 18.759,2.55891 27.5209,7.67669 8.762,5.11782 14.8654,11.89144 18.3103,20.32071 v -25.51381 z m -99.3006,51.02761 c 0,12.64402 4.6055,23.59459 13.8169,32.8518 9.211,9.2572 20.1446,13.8858 32.8005,13.8858 12.656,0 23.4774,-4.6286 32.4637,-13.8858 8.9863,-9.25721 13.4796,-20.24539 13.4796,-32.96469 0,-12.71919 -4.5307,-23.74511 -13.5917,-33.0776 -9.0615,-9.33249 -19.883,-13.99868 -32.4637,-13.99868 -12.5812,0 -23.4774,4.70386 -32.6884,14.11157 -9.2114,9.4077 -13.8169,20.43362 -13.8169,33.0776 z m 173.2146,53.0596 c -14.3782,0 -26.7346,-5.3812 -37.0692,-16.1436 -10.3343,-10.7625 -15.5018,-23.29359 -15.5018,-37.5934 0,-14.29971 5.2423,-26.6803 15.7265,-37.14168 10.4842,-10.46141 23.1027,-15.69212 37.8555,-15.69212 14.7529,0 27.3339,5.23071 37.7434,15.69212 10.4094,10.46138 15.6139,22.87958 15.6139,37.25461 0,14.37509 -5.0923,26.90617 -15.277,37.59337 -10.1847,10.6871 -22.5411,16.0307 -37.0692,16.0307 z m 47.1791,-53.17249 c 0,-12.71919 -4.5308,-23.74511 -13.5919,-33.0776 -9.0614,-9.33249 -19.8825,-13.99868 -32.464,-13.99868 -12.5811,0 -23.477,4.70386 -32.6881,14.11157 -9.2113,9.4077 -13.8168,20.43362 -13.8168,33.0776 0,12.64402 4.6055,23.59459 13.8168,32.8518 9.2111,9.2572 20.1448,13.8858 32.8006,13.8858 12.6559,0 23.4771,-4.6286 32.4637,-13.8858 8.9867,-9.25721 13.4797,-20.24539 13.4797,-32.96469 z m 77.5085,53.62409 h -2.0219 c -14.3785,0 -26.7349,-5.3436 -37.0691,-16.0308 -10.3347,-10.6872 -15.5018,-23.2183 -15.5018,-37.59329 0,-14.37502 5.2419,-26.79319 15.7261,-37.2546 10.4846,-10.46141 23.3648,-15.69212 38.642,-15.69212 15.2771,0 28.3075,5.79512 39.0913,17.38553 v 11.51498 c -4.643,-6.92408 -10.5216,-12.4182 -17.6359,-16.48231 -7.1144,-4.06417 -14.5657,-6.09617 -22.354,-6.09617 -12.4312,0 -23.2523,4.62858 -32.4637,13.88579 -9.211,9.2572 -13.8165,20.2831 -13.8165,33.07761 0,12.79447 4.6055,23.8204 13.8165,33.07758 9.2114,9.2572 20.0325,13.8858 32.4637,13.8858 7.7883,0 15.2396,-2.0321 22.354,-6.0962 7.1143,-4.0641 12.9929,-9.6335 17.6359,-16.70808 v 11.74078 c -10.4842,11.5903 -23.4397,17.3855 -38.8666,17.3855 z m 158.8363,-104.53881 v 101.60361 h -7.1892 v -25.288 c -4.1937,8.5799 -10.4843,15.3534 -18.8716,20.3207 -8.3876,4.9673 -17.374,7.4509 -26.9595,7.4509 -14.6779,0 -27.259,-5.2307 -37.7433,-15.6921 -10.4843,-10.4614 -15.7263,-22.99251 -15.7263,-37.59331 0,-14.60076 5.242,-27.13189 15.7263,-37.59327 10.4843,-10.46141 23.0654,-15.69212 37.7433,-15.69212 9.5855,0 18.7593,2.55891 27.5211,7.67669 8.7618,5.11782 14.8651,11.89144 18.31,20.32071 v -25.51381 z m -99.3008,51.02761 c 0,12.64402 4.6056,23.59459 13.8168,32.8518 9.2112,9.2572 20.1447,13.8858 32.8007,13.8858 12.6559,0 23.4771,-4.6286 32.4636,-13.8858 8.9865,-9.25721 13.4798,-20.24539 13.4798,-32.96469 0,-12.71919 -4.5307,-23.74511 -13.5921,-33.0776 -9.0614,-9.33249 -19.8826,-13.99868 -32.4636,-13.99868 -12.5811,0 -23.4772,4.70386 -32.6884,14.11157 -9.2112,9.4077 -13.8168,20.43362 -13.8168,33.0776 z m 162.4309,45.6087 v 6.322 c -10.6342,0 -19.6954,-3.5749 -27.1841,-10.7248 -7.4888,-7.1499 -11.2331,-16.29418 -11.2331,-27.43299 V 882.5755 h 7.1891 v 41.093 h 31.0035 v 6.322 h -31.0035 v 58.25271 c 0,9.18199 3.033,16.78339 9.0988,22.80439 6.066,6.0209 13.4424,9.0314 22.1293,9.0314 z m 20.1073,6.5478 c -5.1672,0 -7.7508,-2.3331 -7.7508,-6.9994 0,-4.6662 2.5836,-6.9993 7.7508,-6.9993 5.1673,0 7.7509,2.3331 7.7509,6.9993 0,4.6663 -2.5836,6.9994 -7.7509,6.9994 z m 114.2407,-103.18411 h 6.5152 l -49.6502,104.53881 -49.8751,-104.53881 h 7.8631 l 42.6859,89.18541 z m 32.8007,101.60361 h -7.1892 V 923.44269 h 7.1892 v 20.54652 c 7.6385,-15.35342 20.669,-23.03011 39.0912,-23.03011 12.5812,0 23.1402,4.3652 31.6774,13.09561 8.5372,8.7303 12.8058,19.34231 12.8058,31.83569 v 59.1559 h -7.1893 v -59.1559 c 0,-10.3861 -3.6321,-19.41749 -10.8961,-27.09418 -7.264,-7.6767 -16.0633,-11.51509 -26.3978,-11.51509 -10.3344,0 -19.4334,3.83839 -27.2965,11.51509 -7.8632,7.67669 -11.7947,16.70808 -11.7947,27.09418 z"
       style="fill:#e30016;fill-rule:evenodd;stroke-width:0.35277778"
       id="path14" />
  </g>
</svg>
