<?xml version="1.0" encoding="UTF-8" standalone="no"?>
<svg
   xmlns:dc="http://purl.org/dc/elements/1.1/"
   xmlns:cc="http://creativecommons.org/ns#"
   xmlns:rdf="http://www.w3.org/1999/02/22-rdf-syntax-ns#"
   xmlns:svg="http://www.w3.org/2000/svg"
   xmlns="http://www.w3.org/2000/svg"
   viewBox="0 0 76.799896 23.9998"
   id="svg9166"
   height="23.9998"
   width="76.799896"
   version="1.1">
  <metadata
     id="metadata9172">
    <rdf:RDF>
      <cc:Work
         rdf:about="">
        <dc:format>image/svg+xml</dc:format>
        <dc:type
           rdf:resource="http://purl.org/dc/dcmitype/StillImage" />
        <dc:title></dc:title>
      </cc:Work>
    </rdf:RDF>
  </metadata>
  <defs
     id="defs9170" />
  <path
     id="path9156"
     style="fill:#ffffff;fill-rule:evenodd"
     d="m 29.6103,13.4062 h 0.9462 c 0.508,0 0.8688,-0.1202 1.0851,-0.358 0.2166,-0.2382 0.3263,-0.6336 0.3263,-1.1869 v -0.8926 c 0,-0.4865 -0.1097,-0.834 -0.3289,-1.0452 -0.2191,-0.2112 -0.5799,-0.318 -1.0825,-0.318 h -0.9462 z m 0,-5.1319 h 0.8526 c 0.5318,0 0.9009,-0.0989 1.1039,-0.2968 C 31.77,7.7771 31.8715,7.435 31.8715,6.9432 v -0.58 c 0,-0.39 -0.1043,-0.6814 -0.3101,-0.8739 C 31.3556,5.2994 31.0375,5.2058 30.6047,5.2058 h -0.9944 z m -2.7264,6.4951 V 13.358 h 0.8983 V 5.2594 H 26.8839 V 3.848 h 3.8999 c 0.9675,0 1.6838,0.2007 2.1515,0.6041 0.4677,0.4036 0.7002,1.021 0.7002,1.8496 v 0.3824 c 0,0.652 -0.1522,1.1625 -0.4544,1.5316 -0.3045,0.3687 -0.7671,0.6066 -1.387,0.7163 0.6922,0.0989 1.1999,0.3367 1.5208,0.7081 0.3206,0.3744 0.481,0.9116 0.481,1.6117 v 0.711 c 0,0.9677 -0.2245,1.6758 -0.676,2.1277 -0.4519,0.4518 -1.1549,0.6789 -2.109,0.6789 z M 37.6207,10.311 h 2.0367 L 38.6633,5.8635 Z m -3.0682,4.4584 V 13.358 h 0.6976 L 37.3937,5.2594 H 36.4474 V 3.848 h 4.5865 V 5.2594 H 40.088 l 2.1141,8.0986 h 0.6414 v 1.4114 H 39.3983 V 13.358 h 0.9621 l -0.4303,-1.8281 h -2.598 l -0.4544,1.8281 h 0.9329 v 1.4114 z M 40.8871,0.4161 C 40.772,1.023 40.5957,1.4746 40.3604,1.7688 40.1226,2.0653 39.8153,2.2124 39.4411,2.2124 39.3688,2.2124 39.2914,2.2071 39.2138,2.1937 39.1364,2.1804 39.0482,2.1589 38.9493,2.1348 L 38.2837,1.9077 C 38.2276,1.8862 38.1686,1.8703 38.1074,1.8595 38.0485,1.8488 37.9816,1.8437 37.9096,1.8437 c -0.1792,0 -0.3155,0.0425 -0.4145,0.1281 -0.0989,0.0856 -0.1817,0.2299 -0.2432,0.4331 h -0.7271 c 0.1043,-0.5749 0.2781,-1.0105 0.5188,-1.3045 0.2432,-0.2965 0.5479,-0.4436 0.9113,-0.4436 0.0777,0 0.163,0.0079 0.2512,0.0241 0.0884,0.0159 0.1737,0.0374 0.2568,0.0694 l 0.6814,0.2138 c 0.0723,0.0241 0.1389,0.0456 0.2033,0.0589 0.0615,0.0133 0.1202,0.0187 0.1709,0.0187 0.163,0 0.2914,-0.0482 0.3903,-0.1443 0.099,-0.0963 0.1843,-0.2568 0.2512,-0.4813 z m 8.839,6.4925 v 4.8163 c 0,1.0718 -0.2648,1.8871 -0.7912,2.4404 -0.5267,0.5533 -1.2991,0.8286 -2.3148,0.8286 -1.0182,0 -1.7934,-0.2753 -2.3227,-0.8286 -0.5292,-0.5533 -0.7937,-1.3686 -0.7937,-2.4404 V 6.9086 c 0,-1.0718 0.2645,-1.8845 0.7937,-2.4378 0.5293,-0.553 1.3045,-0.8311 2.3227,-0.8311 1.0157,0 1.7881,0.2781 2.3148,0.8311 0.5264,0.5533 0.7912,1.366 0.7912,2.4378 z M 47.8175,6.7989 c 0,-0.5638 -0.0961,-0.9729 -0.2857,-1.2322 -0.19,-0.2591 -0.4947,-0.3875 -0.9117,-0.3875 -0.4195,0 -0.7242,0.1284 -0.9192,0.3875 C 45.5084,5.826 45.412,6.2351 45.412,6.7989 v 5.0196 c 0,0.5641 0.0964,0.9728 0.2889,1.2322 0.195,0.2594 0.4997,0.3875 0.9192,0.3875 0.417,0 0.7217,-0.1281 0.9117,-0.3875 0.1896,-0.2594 0.2857,-0.6681 0.2857,-1.2322 z m 12.2363,4.3622 v 0.4544 c 0,1.0985 -0.2647,1.9378 -0.794,2.5149 -0.5264,0.5749 -1.2963,0.8635 -2.3037,0.8635 -1.0264,0 -1.8042,-0.2994 -2.3309,-0.8955 C 54.096,13.4997 53.8315,12.623 53.8315,11.4659 V 7.4565 c 0,-1.2642 0.2324,-2.2158 0.6976,-2.8573 0.4652,-0.6389 1.1628,-0.9595 2.0874,-0.9595 0.3929,0 0.7484,0.0669 1.0692,0.2004 0.3206,0.1338 0.5908,0.3342 0.8125,0.6015 V 3.8429 h 1.3793 V 7.1357 H 58.3859 L 58.37,6.8471 C 58.3298,6.2884 58.2068,5.8714 57.9984,5.5936 57.7872,5.3181 57.4879,5.1792 57.095,5.1792 c -0.4623,0 -0.8045,0.1389 -1.0239,0.4198 -0.2216,0.2778 -0.3313,0.7163 -0.3313,1.3096 v 4.8163 c 0,0.5933 0.1097,1.029 0.3262,1.3017 0.2191,0.2753 0.5613,0.4116 1.029,0.4116 0.4516,0 0.7912,-0.1443 1.0157,-0.4357 0.227,-0.2885 0.3393,-0.7217 0.3393,-1.2934 v -0.548 z m 3.4399,-0.8501 h 2.0366 L 64.5362,5.8635 Z m -3.0683,4.4584 V 13.358 H 61.123 L 63.2666,5.2594 H 62.3204 V 3.848 h 4.5865 v 1.4114 h -0.946 l 2.1141,8.0986 h 0.6415 v 1.4114 H 65.2713 V 13.358 h 0.962 L 65.803,11.5299 h -2.5979 l -0.4544,1.8281 h 0.9329 v 1.4114 z m 4.4584,-14.8182 h 1.6837 l -2.1302,2.8063 h -0.9649 z m 5.8561,14.8182 V 13.358 h 1.0743 V 5.2112 H 70.5794 V 7.0396 H 69.2803 V 3.848 h 6.9761 v 3.1916 h -1.315 V 5.2112 h -1.2348 v 8.1468 h 1.0905 v 1.4114 z" />
  <path
     id="path9158"
     style="fill:#ffffff;fill-rule:evenodd"
     d="M 3e-4,0.2502 V 24.0486 H 23.7987 V 0.2502 Z" />
  <path
     id="path9160"
     style="fill:#e30016;fill-rule:evenodd"
     d="m 3e-4,17.7023 h 10.3126 0.7933 V 16.909 7.3897 h 3.1732 v 11.8992 l 4.7596,-1.5866 h 4.7597 V 16.909 H 19.039 V 6.5964 L 14.2794,5.0099 V 6.5964 H 11.1062 10.3129 V 7.3897 16.909 H 3e-4 Z" />
  <path
     id="path9162"
     style="fill:#f8b23a;fill-rule:evenodd"
     d="m 28.9084,23.9953 h -1.7447 v -0.2189 c 0.0828,-0.0226 0.1474,-0.0467 0.195,-0.0717 0.0476,-0.0261 0.0828,-0.0612 0.1055,-0.1066 0.0238,-0.0453 0.0385,-0.1031 0.0453,-0.1723 0.0068,-0.0703 0.0102,-0.1587 0.0102,-0.2645 v -2.8655 c 0,-0.1043 -0.0034,-0.1916 -0.009,-0.2622 -0.0046,-0.0715 -0.0193,-0.1282 -0.0431,-0.1735 -0.0227,-0.0442 -0.0579,-0.0794 -0.1055,-0.1077 -0.0476,-0.0272 -0.1134,-0.0522 -0.1984,-0.0749 v -0.2191 h 1.9375 c 0.2622,0 0.4844,0.0182 0.6673,0.0545 0.1825,0.0377 0.3424,0.0932 0.4799,0.168 0.1156,0.0624 0.2131,0.1406 0.2925,0.2348 0.0794,0.0941 0.1406,0.2043 0.1837,0.3291 0.0442,0.1247 0.066,0.2709 0.066,0.4368 0,0.2165 -0.0388,0.4036 -0.1148,0.5581 -0.0771,0.1554 -0.1803,0.2846 -0.3095,0.3878 -0.1296,0.1023 -0.303,0.1998 -0.5196,0.2905 v 0.0329 c 0.1633,0.0715 0.2993,0.1656 0.4062,0.2849 0.1077,0.1179 0.2052,0.2687 0.2914,0.4502 l 0.2086,0.4515 c 0.0933,0.2021 0.1863,0.3529 0.2781,0.4538 0.0919,0.101 0.2007,0.1625 0.328,0.1851 v 0.2189 h -1.2799 c -0.1292,-0.1769 -0.2744,-0.4414 -0.4357,-0.7909 l -0.2596,-0.5683 c -0.0771,-0.169 -0.144,-0.288 -0.1987,-0.3595 -0.0556,-0.0703 -0.1134,-0.1193 -0.1712,-0.1465 -0.059,-0.0261 -0.1497,-0.0397 -0.271,-0.0397 h -0.1931 v 1.0709 c 0,0.1658 0.008,0.2826 0.0227,0.3484 0.0159,0.0669 0.0465,0.1202 0.0907,0.1599 0.0445,0.0397 0.1262,0.0751 0.2452,0.1068 z m -0.3586,-4.1409 v 1.8471 h 0.3291 c 0.1769,0 0.3235,-0.0238 0.4391,-0.0706 0.1146,-0.0476 0.2064,-0.1145 0.2733,-0.1996 0.068,-0.085 0.1145,-0.1859 0.1397,-0.3004 0.0261,-0.116 0.0386,-0.2418 0.0386,-0.379 0,-0.3019 -0.0706,-0.5276 -0.2123,-0.6784 -0.1418,-0.151 -0.3527,-0.2259 -0.6319,-0.2259 -0.1905,0 -0.3155,0.0023 -0.3756,0.0068 z m 5.9684,3.5362 c -0.2256,0.2393 -0.4493,0.4085 -0.6704,0.5083 -0.2222,0.0998 -0.4765,0.1497 -0.7645,0.1497 -0.5162,0 -0.9054,-0.1418 -1.1653,-0.4244 -0.2608,-0.2823 -0.3901,-0.701 -0.3901,-1.258 0,-0.3586 0.0669,-0.6681 0.2007,-0.9281 0.1338,-0.2607 0.3246,-0.4583 0.5695,-0.5921 0.2463,-0.1338 0.5321,-0.2007 0.8578,-0.2007 0.2018,0 0.3787,0.0227 0.5298,0.0692 0.1519,0.0464 0.2823,0.1111 0.3911,0.195 0.108,0.0828 0.1987,0.1825 0.269,0.3007 0.0839,0.1395 0.1474,0.2994 0.1894,0.4788 0.0442,0.1837 0.068,0.4059 0.0692,0.6681 h -2.1067 c 0.0022,0.4006 0.0739,0.6954 0.2145,0.885 0.1406,0.1894 0.3552,0.2846 0.6432,0.2846 0.1678,0 0.32,-0.0317 0.455,-0.0952 0.1349,-0.0624 0.2812,-0.1735 0.4391,-0.3337 z M 33.621,21.9974 c -0.009,-0.339 -0.0536,-0.591 -0.1329,-0.7577 -0.0794,-0.1658 -0.2075,-0.2486 -0.3855,-0.2486 -0.1704,0 -0.3065,0.0862 -0.4074,0.2588 -0.0998,0.1724 -0.161,0.4221 -0.1805,0.7475 z m 3.4668,1.5622 -0.0488,-0.0159 c -0.1825,0.1769 -0.3583,0.3053 -0.5309,0.3847 -0.1712,0.0805 -0.3538,0.1202 -0.5468,0.1202 -0.1905,0 -0.3563,-0.0352 -0.4969,-0.1043 -0.1406,-0.0703 -0.2472,-0.1667 -0.3186,-0.2917 -0.0717,-0.1236 -0.108,-0.2665 -0.108,-0.4286 0,-0.3257 0.1601,-0.5823 0.4799,-0.7694 0.32,-0.187 0.8067,-0.3052 1.4578,-0.354 v -0.3152 c 0,-0.2067 -0.0238,-0.3654 -0.0703,-0.4777 -0.0464,-0.1111 -0.1054,-0.1904 -0.1791,-0.2361 -0.0729,-0.0453 -0.1613,-0.068 -0.2622,-0.068 -0.1021,0 -0.1905,0.0181 -0.2642,0.0533 -0.0751,0.0351 -0.142,0.1023 -0.2021,0.201 -0.059,0.0986 -0.1032,0.2358 -0.1327,0.4107 h -0.6273 v -0.6049 c 0.203,-0.0907 0.3731,-0.161 0.5083,-0.2098 0.1349,-0.0487 0.2687,-0.0884 0.4002,-0.1213 0.1318,-0.0317 0.2498,-0.0544 0.3541,-0.068 0.1043,-0.0125 0.2078,-0.0193 0.3121,-0.0193 0.2687,0 0.4833,0.0351 0.6431,0.1066 0.1611,0.0703 0.2815,0.1859 0.3609,0.3447 0.0794,0.1601 0.1191,0.3801 0.1191,0.6616 v 1.2965 c 0,0.1463 0.0034,0.2588 0.0102,0.3393 0.0068,0.0794 0.017,0.1384 0.0317,0.1769 0.0147,0.0397 0.0329,0.0703 0.0544,0.093 0.0227,0.0238 0.0499,0.0431 0.0817,0.0567 0.0329,0.015 0.0929,0.0332 0.1817,0.0558 v 0.2189 h -1.2368 z m -0.1089,-1.1333 c -0.3438,0.0091 -0.5978,0.0737 -0.7633,0.1928 -0.1647,0.1204 -0.2475,0.295 -0.2475,0.5252 0,0.1375 0.0374,0.2418 0.1134,0.3144 0.0751,0.0714 0.1794,0.1077 0.3121,0.1077 0.102,0 0.1984,-0.0272 0.2894,-0.0816 0.0907,-0.0545 0.1633,-0.127 0.2154,-0.2177 0.0533,-0.091 0.0805,-0.1874 0.0805,-0.2895 z m 3.0314,0.608 c 0,0.2112 0.0068,0.3563 0.0193,0.4357 0.0136,0.0794 0.0408,0.144 0.0816,0.1916 0.0408,0.0477 0.1179,0.0854 0.2316,0.1148 v 0.2189 h -1.6293 v -0.2189 c 0.0671,-0.0158 0.1193,-0.034 0.1567,-0.0558 0.0374,-0.0204 0.0669,-0.0454 0.0873,-0.0726 0.0216,-0.0283 0.0397,-0.0635 0.0556,-0.1066 0.0147,-0.043 0.0249,-0.1031 0.0295,-0.1791 0.0045,-0.076 0.0068,-0.1862 0.0068,-0.328 V 20.442 c 0,-0.1904 -0.0012,-0.3299 -0.0046,-0.4198 -0.0034,-0.0907 -0.0102,-0.1655 -0.0204,-0.2267 -0.0102,-0.0601 -0.0261,-0.1089 -0.0499,-0.1463 -0.0226,-0.0363 -0.0555,-0.0658 -0.0975,-0.0873 -0.0419,-0.023 -0.11,-0.0422 -0.2032,-0.0604 v -0.2188 l 0.9201,-0.0465 h 0.4164 z m 5.6838,-3.5759 v 1.0573 H 45.238 c -0.0726,-0.2108 -0.135,-0.3526 -0.186,-0.4274 -0.051,-0.074 -0.1125,-0.133 -0.1828,-0.176 -0.0715,-0.0431 -0.1916,-0.0647 -0.3617,-0.0647 h -0.7251 v 1.5951 h 0.4391 c 0.0975,0 0.1734,-0.0136 0.2293,-0.042 0.0555,-0.0272 0.1009,-0.0737 0.1372,-0.1372 0.0374,-0.0646 0.0714,-0.1647 0.1054,-0.2996 h 0.3756 v 1.3501 h -0.3756 c -0.0317,-0.1292 -0.0657,-0.227 -0.1031,-0.295 -0.0375,-0.0669 -0.0828,-0.1157 -0.135,-0.144 -0.0524,-0.0295 -0.1307,-0.0431 -0.2338,-0.0431 h -0.4391 v 1.7742 h 0.7217 c 0.0771,0 0.1428,-0.0046 0.1961,-0.0148 0.0522,-0.0102 0.0998,-0.0272 0.1429,-0.051 0.042,-0.0249 0.0816,-0.0578 0.1205,-0.0998 0.0397,-0.0419 0.0737,-0.0873 0.1032,-0.136 0.0306,-0.0488 0.0612,-0.1137 0.0952,-0.1931 0.0329,-0.0805 0.0692,-0.1893 0.1089,-0.3288 h 0.456 l -0.0635,1.2127 h -3.2672 v -0.2189 c 0.0828,-0.0226 0.1474,-0.0467 0.1951,-0.0717 0.0476,-0.0261 0.0827,-0.0612 0.1054,-0.1066 0.0238,-0.0453 0.0386,-0.1031 0.0454,-0.1723 0.0068,-0.0703 0.0102,-0.1587 0.0102,-0.2645 v -2.8655 c 0,-0.1043 -0.0034,-0.1916 -0.0091,-0.2622 -0.0045,-0.0715 -0.0193,-0.1282 -0.0431,-0.1735 -0.0227,-0.0442 -0.0578,-0.0794 -0.1054,-0.1077 -0.0477,-0.0272 -0.1134,-0.0522 -0.1985,-0.0749 v -0.2191 z m 1.0493,3.4172 c 0.0559,0.263 0.1489,0.4595 0.2781,0.5899 0.1293,0.1292 0.3201,0.1939 0.5706,0.1939 0.1304,0 0.2472,-0.0216 0.3518,-0.0658 0.1043,-0.0453 0.1882,-0.1168 0.2506,-0.2143 0.0635,-0.0986 0.0952,-0.2225 0.0952,-0.371 0,-0.1372 -0.026,-0.2563 -0.0771,-0.3575 -0.051,-0.1009 -0.1326,-0.1962 -0.2449,-0.288 -0.1134,-0.0907 -0.2712,-0.1871 -0.4719,-0.2883 -0.1735,-0.0873 -0.3291,-0.1769 -0.4697,-0.2698 -0.1395,-0.093 -0.2588,-0.1953 -0.3564,-0.3076 -0.0986,-0.1111 -0.1757,-0.2336 -0.2301,-0.3662 -0.0533,-0.1341 -0.0805,-0.2826 -0.0805,-0.4493 0,-0.2724 0.0669,-0.5037 0.2018,-0.6945 0.1349,-0.1905 0.3314,-0.3356 0.5865,-0.4343 0.2565,-0.0978 0.5525,-0.1477 0.8895,-0.1477 0.1973,0 0.3858,0.0102 0.5652,0.0318 0.1792,0.0204 0.3847,0.0578 0.6149,0.1114 v 0.964 h -0.455 c -0.042,-0.1757 -0.0964,-0.314 -0.161,-0.4172 -0.0661,-0.1035 -0.1477,-0.1794 -0.2455,-0.2282 -0.0975,-0.0488 -0.22,-0.0726 -0.3685,-0.0726 -0.1259,0 -0.2395,0.0216 -0.3393,0.0658 -0.0998,0.0453 -0.178,0.1111 -0.2358,0.1984 -0.0567,0.0876 -0.0862,0.1931 -0.0862,0.3178 0,0.1281 0.0249,0.2395 0.0748,0.3336 0.0499,0.0941 0.1338,0.186 0.2506,0.2755 0.1179,0.0896 0.2883,0.1931 0.5117,0.3076 0.2735,0.1417 0.4881,0.2812 0.6434,0.4176 0.1568,0.136 0.2724,0.2845 0.3461,0.4444 0.0737,0.1613 0.1111,0.3484 0.1111,0.5607 0,0.2721 -0.0623,0.5094 -0.1893,0.7101 -0.1259,0.1996 -0.3098,0.354 -0.5516,0.4618 -0.2418,0.1077 -0.5208,0.161 -0.8374,0.161 -0.2268,0 -0.4617,-0.0125 -0.7067,-0.0386 -0.2452,-0.0249 -0.4742,-0.0623 -0.6896,-0.1111 v -1.0233 z m 3.936,1.1197 v -0.2189 c 0.0932,-0.0158 0.1669,-0.0362 0.2213,-0.0626 0.0545,-0.0249 0.0953,-0.0612 0.1214,-0.1077 0.0272,-0.0465 0.043,-0.1055 0.0499,-0.178 0.0068,-0.0715 0.0102,-0.161 0.0102,-0.2668 v -3.3137 h -0.2688 c -0.134,0 -0.235,0.0148 -0.3064,0.0465 -0.0703,0.0306 -0.1327,0.0794 -0.1848,0.1463 -0.051,0.066 -0.0964,0.1556 -0.1341,0.2667 -0.0374,0.1123 -0.0692,0.2177 -0.093,0.3178 H 49.639 v -1.1665 h 3.913 v 1.1665 H 53.0959 C 53.0539,20.4738 53.0211,20.3638 52.9961,20.2924 52.9723,20.2221 52.9451,20.162 52.9156,20.1121 52.885,20.0619 52.8532,20.02 52.8201,19.9871 52.7872,19.9542 52.752,19.927 52.7135,19.9066 52.6761,19.8873 52.6296,19.8726 52.5729,19.8624 52.5162,19.8522 52.4425,19.8476 52.3518,19.8476 h -0.2395 v 3.3137 c 0,0.1171 0.0034,0.2067 0.0102,0.2668 0.0068,0.0612 0.0181,0.1111 0.0363,0.1485 0.0181,0.0374 0.0396,0.068 0.0646,0.0907 0.0261,0.0238 0.0612,0.0442 0.1069,0.0635 0.0453,0.0196 0.1065,0.0343 0.1848,0.0456 v 0.2189 z m 5.0156,-1.4057 h -1.4193 l -0.1089,0.3155 c -0.0317,0.0884 -0.0567,0.1746 -0.0771,0.2574 -0.0193,0.083 -0.0295,0.1715 -0.0295,0.2644 0,0.2166 0.1146,0.3337 0.3461,0.3495 v 0.2189 H 52.987 v -0.2189 c 0.0817,-0.009 0.1531,-0.0385 0.2155,-0.0875 0.0623,-0.0488 0.1182,-0.1146 0.1692,-0.1985 0.051,-0.085 0.1054,-0.2052 0.1633,-0.3631 l 1.3864,-3.6927 h 0.887 l 1.097,3.7233 c 0.049,0.1658 0.0898,0.2838 0.1227,0.3541 0.0329,0.0691 0.076,0.1258 0.1293,0.1689 0.0533,0.0431 0.1281,0.0751 0.2233,0.0955 v 0.2189 h -1.8354 v -0.2189 c 0.1157,-0.0136 0.2007,-0.0456 0.2563,-0.0966 0.0555,-0.051 0.0827,-0.1236 0.0827,-0.2166 0,-0.068 -0.0079,-0.1451 -0.0226,-0.229 -0.0159,-0.0842 -0.0409,-0.1908 -0.0771,-0.3189 z m -1.2921,-0.3889 h 1.1957 l -0.5309,-1.8709 z m 3.7582,1.7946 v -0.2189 c 0.0933,-0.0158 0.167,-0.0362 0.2214,-0.0626 0.0544,-0.0249 0.0952,-0.0612 0.1213,-0.1077 0.0272,-0.0465 0.0431,-0.1055 0.0499,-0.178 0.0068,-0.0715 0.0102,-0.161 0.0102,-0.2668 v -3.3137 h -0.2687 c -0.1341,0 -0.235,0.0148 -0.3064,0.0465 -0.0703,0.0306 -0.1327,0.0794 -0.1848,0.1463 -0.0511,0.066 -0.0964,0.1556 -0.1341,0.2667 -0.0374,0.1123 -0.0692,0.2177 -0.093,0.3178 h -0.4561 v -1.1665 h 3.9129 v 1.1665 h -0.456 C 60.5357,20.4738 60.5028,20.3638 60.4779,20.2924 60.4541,20.2221 60.4269,20.162 60.3974,20.1121 60.3668,20.0619 60.335,20.02 60.3018,19.9871 60.269,19.9542 60.2338,19.927 60.1953,19.9066 60.1578,19.8873 60.1114,19.8726 60.0547,19.8624 59.998,19.8522 59.9243,19.8476 59.8336,19.8476 H 59.594 v 3.3137 c 0,0.1171 0.0034,0.2067 0.0102,0.2668 0.0068,0.0612 0.0182,0.1111 0.0363,0.1485 0.0182,0.0374 0.0397,0.068 0.0646,0.0907 0.0261,0.0238 0.0613,0.0442 0.1069,0.0635 0.0454,0.0196 0.1066,0.0343 0.1848,0.0456 v 0.2189 z m 6.7082,-4.5369 v 1.0573 h -0.4561 c -0.0726,-0.2108 -0.1349,-0.3526 -0.1859,-0.4274 -0.0511,-0.074 -0.1126,-0.133 -0.1829,-0.176 -0.0714,-0.0431 -0.1916,-0.0647 -0.3617,-0.0647 h -0.7251 v 1.5951 h 0.4391 c 0.0975,0 0.1735,-0.0136 0.2293,-0.042 0.0556,-0.0272 0.1009,-0.0737 0.1372,-0.1372 0.0374,-0.0646 0.0715,-0.1647 0.1055,-0.2996 h 0.3756 v 1.3501 h -0.3756 c -0.0318,-0.1292 -0.0658,-0.227 -0.1032,-0.295 -0.0374,-0.0669 -0.0828,-0.1157 -0.1349,-0.144 -0.0525,-0.0295 -0.1307,-0.0431 -0.2339,-0.0431 h -0.4391 v 1.7742 h 0.7217 c 0.0771,0 0.1429,-0.0046 0.1962,-0.0148 0.0521,-0.0102 0.0998,-0.0272 0.1428,-0.051 0.042,-0.0249 0.0817,-0.0578 0.1205,-0.0998 0.0397,-0.0419 0.0737,-0.0873 0.1032,-0.136 0.0306,-0.0488 0.0612,-0.1137 0.0952,-0.1931 0.0329,-0.0805 0.0692,-0.1893 0.1089,-0.3288 h 0.4561 l -0.0635,1.2127 h -3.2672 v -0.2189 c 0.0828,-0.0226 0.1474,-0.0467 0.195,-0.0717 0.0476,-0.0261 0.0828,-0.0612 0.1055,-0.1066 0.0238,-0.0453 0.0385,-0.1031 0.0453,-0.1723 0.0068,-0.0703 0.0102,-0.1587 0.0102,-0.2645 v -2.8655 c 0,-0.1043 -0.0034,-0.1916 -0.0091,-0.2622 -0.0045,-0.0715 -0.0192,-0.1282 -0.043,-0.1735 -0.0227,-0.0442 -0.0579,-0.0794 -0.1055,-0.1077 -0.0476,-0.0272 -0.1134,-0.0522 -0.1984,-0.0749 v -0.2191 z" />
  <path
     id="path9164"
     style="fill:#ffffff;fill-rule:evenodd"
     d="m 23.7987,16.909 v 0.7933 H 76.8002 V 16.909 Z" />
</svg>
