<svg xmlns="http://www.w3.org/2000/svg" id="svg8605" height="24" width="76.8"><path id="path8597" d="M29.61 13.406h.946c.508 0 .87-.12 1.086-.358.216-.238.326-.633.326-1.187v-.892c0-.487-.11-.834-.329-1.045-.22-.212-.58-.318-1.083-.318h-.946zm0-5.132h.853c.532 0 .9-.099 1.104-.296.203-.2.305-.543.305-1.035v-.58c0-.39-.105-.681-.31-.874-.206-.19-.524-.283-.957-.283h-.995zm-2.726 6.495v-1.411h.898V5.259h-.898V3.848h3.9c.967 0 1.684.2 2.151.604.468.404.7 1.021.7 1.85v.382c0 .652-.152 1.163-.454 1.532-.304.368-.767.606-1.387.716.692.099 1.2.337 1.52.708.322.374.482.912.482 1.612v.71c0 .968-.225 1.677-.676 2.128-.452.452-1.155.68-2.11.68zm10.737-4.458h2.036l-.994-4.447zm-3.069 4.458v-1.411h.698l2.144-8.099h-.947V3.848h4.587v1.411h-.946l2.114 8.099h.642v1.411h-3.446v-1.411h.962l-.43-1.828h-2.598l-.454 1.828h.933v1.411zM40.888.416c-.115.607-.291 1.059-.527 1.353a1.125 1.125 0 0 1-.919.443c-.072 0-.15-.005-.227-.018a4.025 4.025 0 0 1-.265-.06l-.665-.226a.957.957 0 0 0-.374-.064c-.18 0-.316.042-.415.128-.099.085-.182.23-.243.433h-.727c.104-.575.278-1.01.519-1.305.243-.296.548-.443.91-.443.079 0 .164.008.252.024s.174.037.257.07l.681.213c.073.024.14.046.204.059.061.013.12.019.17.019a.534.534 0 0 0 .39-.145c.1-.096.185-.256.252-.48zm8.84 6.493v4.816c0 1.072-.266 1.887-.792 2.44-.527.554-1.3.829-2.315.829-1.018 0-1.793-.275-2.323-.829-.529-.553-.793-1.368-.793-2.44V6.909c0-1.072.264-1.885.793-2.438.53-.553 1.305-.831 2.323-.831 1.016 0 1.788.278 2.315.83.526.554.791 1.367.791 2.439zm-1.91-.11c0-.564-.096-.973-.285-1.232-.19-.26-.495-.388-.912-.388-.42 0-.724.129-.92.388-.192.259-.288.668-.288 1.232v5.02c0 .564.096.972.289 1.232.195.26.5.387.92.387.416 0 .72-.128.91-.387.19-.26.286-.668.286-1.232zm12.237 4.362v.454c0 1.099-.265 1.938-.794 2.515-.527.575-1.296.864-2.304.864-1.026 0-1.804-.3-2.33-.896-.53-.598-.794-1.475-.794-2.632v-4.01c0-1.264.232-2.215.697-2.857.465-.639 1.163-.96 2.087-.96.393 0 .749.068 1.07.201.32.134.59.334.812.602v-.6h1.38v3.294h-1.492l-.016-.289c-.04-.559-.163-.976-.372-1.253-.21-.276-.51-.415-.903-.415-.462 0-.804.14-1.024.42-.221.278-.331.716-.331 1.31v4.816c0 .593.11 1.029.326 1.302.22.275.561.411 1.029.411.452 0 .791-.144 1.016-.436.227-.288.339-.721.339-1.293v-.548zm3.44-.85h2.036l-.994-4.447zm-3.069 4.458v-1.411h.698l2.144-8.099h-.947V3.848h4.587v1.411h-.946l2.114 8.099h.641v1.411h-3.445v-1.411h.962l-.43-1.828h-2.598l-.454 1.828h.933v1.411zM64.884-.049h1.684l-2.13 2.807h-.966zM70.74 14.77v-1.411h1.074V5.211H70.58V7.04h-1.3V3.848h6.976V7.04h-1.315V5.21h-1.234v8.147h1.09v1.411z" fill="#fff" fill-rule="evenodd"/><path id="path8599" d="M0 .25h23.8v16.66h-4.76V6.596L14.28 5.01v1.586h-3.966V16.91H0zm23.8 17.452v6.347H0v-6.347h11.106V7.39h3.173v11.9l4.76-1.587z" fill="#fff" fill-rule="evenodd"/><path id="path8601" d="M28.908 23.995h-1.744v-.219a.988.988 0 0 0 .195-.071.246.246 0 0 0 .105-.107.471.471 0 0 0 .045-.172c.007-.07.01-.159.01-.265v-2.865a3.74 3.74 0 0 0-.008-.262.428.428 0 0 0-.043-.174.267.267 0 0 0-.106-.108.852.852 0 0 0-.198-.075v-.219H29.1c.262 0 .485.019.668.055.182.038.342.093.48.168a.997.997 0 0 1 .476.564c.044.124.066.27.066.437 0 .216-.04.403-.115.558-.077.155-.18.284-.31.387-.13.103-.303.2-.52.291v.033c.164.071.3.165.407.285.108.118.205.268.291.45l.209.451c.093.203.186.353.278.454.092.101.2.163.328.185v.22h-1.28a4.843 4.843 0 0 1-.436-.792l-.26-.568a1.983 1.983 0 0 0-.198-.36.498.498 0 0 0-.171-.146.706.706 0 0 0-.271-.04h-.193v1.071c0 .166.008.283.023.349.015.067.046.12.09.16.045.04.126.075.245.106zm-.358-4.14V21.7h.329c.177 0 .323-.023.439-.07a.664.664 0 0 0 .413-.5c.026-.116.039-.242.039-.38 0-.301-.071-.527-.213-.678-.141-.15-.352-.225-.632-.225-.19 0-.315.002-.375.006zm5.968 3.536c-.225.239-.45.408-.67.508-.222.1-.477.15-.765.15-.516 0-.905-.142-1.165-.425-.26-.282-.39-.7-.39-1.258 0-.358.067-.668.2-.928a1.37 1.37 0 0 1 .57-.592c.246-.134.532-.2.858-.2.202 0 .379.022.53.068.152.047.282.112.39.195.109.083.2.183.27.301.084.14.147.3.19.479.043.184.067.406.068.668h-2.106c.002.4.074.695.214.885.14.19.355.285.643.285.168 0 .32-.032.455-.096a1.58 1.58 0 0 0 .44-.333zm-.897-1.394c-.009-.339-.054-.59-.133-.757a.4.4 0 0 0-.385-.249c-.17 0-.307.086-.408.259-.1.172-.16.422-.18.747zm3.467 1.563l-.049-.016a1.962 1.962 0 0 1-.53.384 1.27 1.27 0 0 1-.548.12 1.12 1.12 0 0 1-.497-.104.73.73 0 0 1-.318-.291.839.839 0 0 1-.108-.429c0-.326.16-.582.48-.77.32-.186.806-.305 1.458-.353v-.316c0-.206-.024-.365-.07-.477a.486.486 0 0 0-.18-.236.49.49 0 0 0-.262-.068.61.61 0 0 0-.264.053.493.493 0 0 0-.202.2 1.2 1.2 0 0 0-.133.412h-.627v-.605c.203-.091.373-.161.508-.21.135-.049.269-.088.4-.121a2.615 2.615 0 0 1 .666-.087c.269 0 .484.034.643.106.162.07.282.186.361.345.08.16.12.38.12.661v1.297c0 .146.003.258.01.339.006.08.017.138.031.177a.245.245 0 0 0 .136.15c.033.015.093.033.182.055v.22h-1.237zm-.11-1.134c-.343.01-.597.074-.762.193-.165.12-.248.295-.248.525 0 .138.037.242.113.315a.44.44 0 0 0 .313.107.6.6 0 0 0 .585-.589zm3.032.608c0 .212.007.357.02.436.013.08.04.144.081.192.041.047.118.085.232.114v.22h-1.63v-.22a.586.586 0 0 0 .157-.055.27.27 0 0 0 .088-.073.405.405 0 0 0 .055-.107.708.708 0 0 0 .03-.179c.004-.076.006-.186.006-.328v-2.592c0-.19 0-.33-.004-.42a1.82 1.82 0 0 0-.02-.226.395.395 0 0 0-.05-.147.243.243 0 0 0-.098-.087.761.761 0 0 0-.203-.06v-.22l.92-.046h.416zm5.684-3.576v1.058h-.456a2.012 2.012 0 0 0-.186-.428.607.607 0 0 0-.183-.176c-.071-.043-.191-.064-.362-.064h-.725v1.595h.44a.511.511 0 0 0 .229-.042.326.326 0 0 0 .137-.137c.037-.065.071-.165.105-.3h.376v1.35h-.376a1.255 1.255 0 0 0-.103-.295.355.355 0 0 0-.135-.144.49.49 0 0 0-.233-.043h-.44v1.774h.722c.077 0 .143-.004.196-.015.052-.01.1-.027.143-.05a.54.54 0 0 0 .12-.1.796.796 0 0 0 .104-.136c.03-.05.061-.114.095-.194.033-.08.07-.189.109-.328h.456l-.064 1.212h-3.267v-.219a.992.992 0 0 0 .195-.071.245.245 0 0 0 .106-.107.471.471 0 0 0 .045-.172c.007-.07.01-.159.01-.265v-2.865a3.17 3.17 0 0 0-.009-.262.427.427 0 0 0-.043-.174.267.267 0 0 0-.105-.108.853.853 0 0 0-.199-.074v-.22zm1.05 3.418c.055.263.148.46.278.59.129.129.32.193.57.193.13 0 .247-.021.352-.065a.554.554 0 0 0 .25-.215.673.673 0 0 0 .096-.37.784.784 0 0 0-.077-.358.912.912 0 0 0-.245-.288 2.763 2.763 0 0 0-.472-.288 4.602 4.602 0 0 1-.47-.27 1.766 1.766 0 0 1-.356-.308 1.285 1.285 0 0 1-.23-.366 1.202 1.202 0 0 1-.08-.45c0-.272.066-.503.2-.694.136-.19.332-.336.587-.434.257-.098.553-.148.89-.148a4.734 4.734 0 0 1 1.18.143v.964h-.455a1.408 1.408 0 0 0-.161-.417.618.618 0 0 0-.246-.228.82.82 0 0 0-.368-.073.831.831 0 0 0-.34.066.546.546 0 0 0-.235.198.572.572 0 0 0-.086.318c0 .128.025.24.074.334.05.094.134.186.251.275.118.09.288.193.512.308.273.142.488.281.643.418.157.136.273.284.346.444.074.161.111.348.111.56a1.3 1.3 0 0 1-.189.71c-.126.2-.31.355-.552.463a2.04 2.04 0 0 1-.837.16 6.662 6.662 0 0 1-1.396-.15v-1.022zm3.935 1.12v-.22a.843.843 0 0 0 .222-.062.257.257 0 0 0 .121-.108.431.431 0 0 0 .05-.178c.007-.071.01-.16.01-.267v-3.313h-.269a.779.779 0 0 0-.306.046.473.473 0 0 0-.185.146.923.923 0 0 0-.134.267c-.037.112-.07.218-.093.318h-.456v-1.167h3.913v1.167h-.456a5.874 5.874 0 0 0-.1-.333.96.96 0 0 0-.08-.18.66.66 0 0 0-.096-.125.448.448 0 0 0-.106-.08.5.5 0 0 0-.141-.045 1.3 1.3 0 0 0-.221-.014h-.24v3.313c0 .117.004.207.01.267a.464.464 0 0 0 .037.149.3.3 0 0 0 .064.09.371.371 0 0 0 .107.064c.046.02.107.034.185.045v.22zm5.016-1.406h-1.42l-.108.315a2.611 2.611 0 0 0-.077.257c-.02.084-.03.172-.03.265 0 .217.115.334.346.35v.218h-1.419v-.219a.415.415 0 0 0 .215-.087.727.727 0 0 0 .17-.199c.05-.085.105-.205.163-.363l1.386-3.692h.887l1.097 3.723c.05.166.09.284.123.354s.076.126.13.169a.53.53 0 0 0 .223.095v.22h-1.836v-.22a.45.45 0 0 0 .257-.096c.055-.051.082-.124.082-.217a1.42 1.42 0 0 0-.022-.229 3.768 3.768 0 0 0-.077-.319zm-1.292-.39h1.196l-.531-1.87zm3.758 1.795v-.219a.842.842 0 0 0 .222-.062.257.257 0 0 0 .12-.108.43.43 0 0 0 .05-.178c.008-.071.01-.16.01-.267v-3.313h-.268a.779.779 0 0 0-.306.046.473.473 0 0 0-.185.146.92.92 0 0 0-.134.267c-.038.112-.07.218-.093.318h-.456v-1.167h3.913v1.167h-.456a5.96 5.96 0 0 0-.1-.333.96.96 0 0 0-.08-.18.657.657 0 0 0-.096-.125.445.445 0 0 0-.107-.08.501.501 0 0 0-.14-.045 1.3 1.3 0 0 0-.221-.014h-.24v3.313c0 .117.003.207.01.267a.467.467 0 0 0 .036.149c.019.037.04.068.065.09a.372.372 0 0 0 .107.064c.045.02.107.034.185.045v.22zm6.708-4.537v1.058h-.456a2.013 2.013 0 0 0-.186-.428.609.609 0 0 0-.183-.176c-.071-.043-.191-.064-.361-.064h-.725v1.595h.439a.511.511 0 0 0 .229-.042.326.326 0 0 0 .137-.137c.038-.065.072-.165.106-.3h.375v1.35h-.375a1.259 1.259 0 0 0-.103-.295.355.355 0 0 0-.135-.144.491.491 0 0 0-.234-.043h-.44v1.774h.722c.077 0 .143-.004.197-.015.052-.01.1-.027.142-.05a.538.538 0 0 0 .12-.1.796.796 0 0 0 .104-.136c.03-.05.061-.114.095-.194.033-.08.07-.189.11-.328h.455l-.063 1.212h-3.267v-.219a.988.988 0 0 0 .195-.071.246.246 0 0 0 .105-.107.471.471 0 0 0 .045-.172c.007-.07.01-.159.01-.265v-2.865a3.17 3.17 0 0 0-.009-.262.427.427 0 0 0-.043-.174.267.267 0 0 0-.105-.108.852.852 0 0 0-.198-.074v-.22z" fill="#f8b23a" fill-rule="evenodd"/><path id="path8603" d="M23.799 16.909v.793H76.8v-.793z" fill="#fff" fill-rule="evenodd"/></svg>