<svg xmlns="http://www.w3.org/2000/svg" id="svg16" height="1100" width="900"><g transform="translate(18.68 72.019)" id="g27" fill-rule="evenodd" stroke-width=".353"><path d="M-18.68-71.948v899.93h900v-900z" id="path10" fill="#ececed"/><path d="M-18.68 516.63h420.011V126.684h120.03v449.964l179.965-60.006 179.995-.014v-30.01l-180.037.015V96.674L521.318 36.67v60.006H371.32v389.959H-18.637z" id="path12" fill="#e30016"/><path d="M-18.68 1025.046V855.707h7.19v92.572C-7.446 940-1.118 933.377 7.494 928.41c8.612-4.967 17.56-7.45 26.847-7.45 14.828 0 27.446 5.23 37.856 15.691 10.409 10.462 15.614 22.993 15.614 37.593 0 14.601-5.205 27.132-15.614 37.594-10.41 10.461-23.028 15.692-37.856 15.692-8.986 0-17.748-2.446-26.285-7.338-8.538-4.892-15.053-11.477-19.546-19.756v24.61zm6.74-50.576c0 12.644 4.606 23.595 13.817 32.852 9.211 9.257 20.145 13.886 32.8 13.886 12.657 0 23.478-4.629 32.465-13.886 8.986-9.257 13.48-20.245 13.48-32.965 0-12.719-4.531-23.745-13.593-33.077-9.061-9.333-19.882-13.999-32.463-13.999s-23.478 4.704-32.689 14.112c-9.21 9.407-13.817 20.433-13.817 33.077zm221.967-51.027v101.603h-7.19v-25.288c-4.193 8.58-10.484 15.354-18.871 20.321-8.387 4.967-17.374 7.45-26.96 7.45-14.677 0-27.258-5.23-37.743-15.691-10.484-10.462-15.726-22.993-15.726-37.594 0-14.6 5.242-27.131 15.726-37.593 10.485-10.461 23.066-15.692 37.744-15.692 9.585 0 18.759 2.559 27.52 7.677 8.763 5.118 14.866 11.891 18.31 20.32v-25.513zm-99.3 51.027c0 12.644 4.605 23.595 13.816 32.852 9.211 9.257 20.145 13.886 32.8 13.886 12.657 0 23.478-4.629 32.464-13.886 8.987-9.257 13.48-20.245 13.48-32.965 0-12.719-4.53-23.745-13.592-33.077-9.061-9.333-19.883-13.999-32.463-13.999-12.582 0-23.478 4.704-32.689 14.112-9.211 9.407-13.817 20.433-13.817 33.077zm173.214 53.06c-14.378 0-26.735-5.381-37.07-16.144-10.334-10.762-15.501-23.293-15.501-37.593 0-14.3 5.242-26.68 15.726-37.142 10.485-10.461 23.103-15.692 37.856-15.692s27.334 5.23 37.743 15.692c10.41 10.462 15.614 22.88 15.614 37.255 0 14.375-5.092 26.906-15.277 37.593-10.185 10.687-22.541 16.03-37.07 16.03zm47.179-53.173c0-12.719-4.53-23.745-13.592-33.077-9.061-9.333-19.882-13.999-32.464-13.999-12.581 0-23.477 4.704-32.688 14.112-9.211 9.407-13.817 20.433-13.817 33.077 0 12.644 4.606 23.595 13.817 32.852 9.211 9.257 20.145 13.886 32.8 13.886 12.656 0 23.478-4.629 32.464-13.886 8.987-9.257 13.48-20.245 13.48-32.965zm77.508 53.624h-2.021c-14.379 0-26.735-5.343-37.07-16.03-10.334-10.688-15.501-23.219-15.501-37.594s5.242-26.793 15.726-37.254c10.484-10.462 23.365-15.692 38.642-15.692 15.277 0 28.307 5.795 39.091 17.385v11.515c-4.643-6.924-10.522-12.418-17.636-16.482-7.114-4.064-14.566-6.096-22.354-6.096-12.431 0-23.252 4.628-32.464 13.886-9.21 9.257-13.816 20.283-13.816 33.077 0 12.795 4.605 23.82 13.816 33.078 9.212 9.257 20.033 13.885 32.464 13.885 7.788 0 15.24-2.032 22.354-6.096 7.114-4.064 12.993-9.633 17.636-16.708v11.741c-10.484 11.59-23.44 17.386-38.867 17.386zm158.837-104.538v101.603h-7.19v-25.288c-4.193 8.58-10.484 15.354-18.871 20.321-8.388 4.967-17.374 7.45-26.96 7.45-14.677 0-27.259-5.23-37.743-15.691-10.484-10.462-15.726-22.993-15.726-37.594 0-14.6 5.242-27.131 15.726-37.593 10.484-10.461 23.066-15.692 37.743-15.692 9.586 0 18.76 2.559 27.522 7.677 8.761 5.118 14.865 11.891 18.31 20.32v-25.513zm-99.301 51.027c0 12.644 4.606 23.595 13.817 32.852 9.21 9.257 20.144 13.886 32.8 13.886 12.656 0 23.478-4.629 32.464-13.886 8.987-9.257 13.48-20.245 13.48-32.965 0-12.719-4.53-23.745-13.592-33.077-9.062-9.333-19.883-13.999-32.464-13.999s-23.477 4.704-32.688 14.112c-9.211 9.407-13.817 20.433-13.817 33.077zm162.43 45.609v6.322c-10.633 0-19.695-3.575-27.183-10.725-7.49-7.15-11.233-16.294-11.233-27.433V882.575h7.189v41.093h31.003v6.322h-31.003v58.253c0 9.182 3.033 16.784 9.099 22.805 6.066 6.02 13.442 9.031 22.129 9.031zm20.108 6.548c-5.167 0-7.75-2.333-7.75-7 0-4.666 2.583-6.999 7.75-6.999s7.751 2.333 7.751 7c0 4.666-2.584 6.999-7.75 6.999zm114.24-103.184h6.516l-49.65 104.538-49.875-104.538h7.863l42.686 89.185zm32.802 101.603h-7.19V923.443h7.19v20.546c7.638-15.353 20.669-23.03 39.09-23.03 12.582 0 23.14 4.365 31.678 13.096 8.537 8.73 12.806 19.342 12.806 31.835v59.156h-7.19V965.89c0-10.386-3.631-19.417-10.895-27.094-7.264-7.676-16.064-11.515-26.398-11.515-10.335 0-19.434 3.839-27.297 11.515-7.863 7.677-11.794 16.708-11.794 27.094z" id="path14" fill="#e30016"/></g></svg>