<svg xmlns="http://www.w3.org/2000/svg" id="svg9521" height="200" width="200"><path id="path9501" d="M100 0a100 100 0 0 1 100 100A100 100 0 1 1 100 0z" fill="#fff" fill-rule="evenodd" stroke-width=".077"/><path id="path9503" d="M191.892 139.495a99.725 99.725 0 0 1-3.126 6.586h-29.291l-39.496 13.169V60.5H93.638v85.578H11.233a99.138 99.138 0 0 1-3.124-6.583h78.942v-85.58h32.919V40.747l39.496 13.169v85.58z" fill="#e30016" fill-rule="evenodd" stroke-width=".077"/><path id="path9517" d="M100 0a100 100 0 0 1 100 100A100 100 0 1 1 100 0z" fill="#e30016" fill-rule="evenodd" stroke-width=".077"/><path id="path9519" d="M191.892 139.495a99.725 99.725 0 0 1-3.126 6.586h-29.291l-39.496 13.169V60.5H93.638v85.578H11.233a99.138 99.138 0 0 1-3.124-6.583h78.942v-85.58h32.919V40.747l39.496 13.169v85.58z" fill="#fff" fill-rule="evenodd" stroke-width=".077"/></svg>