<?xml version="1.0" encoding="UTF-8" standalone="no"?>
<svg
   xmlns:dc="http://purl.org/dc/elements/1.1/"
   xmlns:cc="http://creativecommons.org/ns#"
   xmlns:rdf="http://www.w3.org/1999/02/22-rdf-syntax-ns#"
   xmlns:svg="http://www.w3.org/2000/svg"
   xmlns="http://www.w3.org/2000/svg"
   xmlns:sodipodi="http://sodipodi.sourceforge.net/DTD/sodipodi-0.dtd"
   xmlns:inkscape="http://www.inkscape.org/namespaces/inkscape"
   version="1.1"
   width="72.959801"
   height="21.119801"
   id="svg5089"
   viewBox="0 0 72.959801 21.119801"
   sodipodi:docname="logo-v6.svg"
   inkscape:export-filename="C:\Users\Nam Dinh\Pictures\webbaocat\logo\logo-v6-62.png"
   inkscape:export-xdpi="281.57971"
   inkscape:export-ydpi="281.57971"
   inkscape:version="0.92.1 r15371">
  <metadata
     id="metadata5095">
    <rdf:RDF>
      <cc:Work
         rdf:about="">
        <dc:format>image/svg+xml</dc:format>
        <dc:type
           rdf:resource="http://purl.org/dc/dcmitype/StillImage" />
        <dc:title></dc:title>
      </cc:Work>
    </rdf:RDF>
  </metadata>
  <defs
     id="defs5093" />
  <sodipodi:namedview
     pagecolor="#ffffff"
     bordercolor="#666666"
     borderopacity="1"
     objecttolerance="10"
     gridtolerance="10"
     guidetolerance="10"
     inkscape:pageopacity="0"
     inkscape:pageshadow="2"
     inkscape:window-width="1920"
     inkscape:window-height="1017"
     id="namedview5091"
     showgrid="false"
     inkscape:zoom="3.8925545"
     inkscape:cx="36.4799"
     inkscape:cy="10.5599"
     inkscape:window-x="-8"
     inkscape:window-y="-8"
     inkscape:window-maximized="1"
     inkscape:current-layer="svg5089" />
  <path
     d="m 24.7728,10.5831 h 0.7404 c 0.3974,0 0.6801,-0.0941 0.8493,-0.28 0.1695,-0.1862 0.2554,-0.4958 0.2554,-0.9289 V 8.6754 C 26.6179,8.2947 26.532,8.0229 26.3605,7.8576 26.189,7.6924 25.9067,7.6088 25.5132,7.6088 h -0.7404 z m 0,-4.0161 h 0.6673 c 0.4164,0 0.705,-0.0774 0.864,-0.2321 0.159,-0.1571 0.2384,-0.4247 0.2384,-0.8096 V 5.0712 c 0,-0.3053 -0.0816,-0.5332 -0.2427,-0.684 C 26.1388,4.2386 25.89,4.1655 25.5509,4.1655 h -0.7781 z m -2.1336,5.0831 v -1.1044 h 0.7027 V 4.2075 H 22.6392 V 3.1028 h 3.052 c 0.7572,0 1.3179,0.157 1.6838,0.4728 0.3663,0.3158 0.5482,0.7991 0.5482,1.4477 v 0.299 c 0,0.5106 -0.1193,0.91 -0.3557,1.1985 -0.2384,0.2889 -0.6004,0.4751 -1.0857,0.5607 0.5417,0.0774 0.9391,0.2636 1.1903,0.5545 0.2511,0.2928 0.3764,0.7132 0.3764,1.2614 v 0.5564 c 0,0.7572 -0.1757,1.3113 -0.5292,1.6651 -0.3535,0.3535 -0.9037,0.5312 -1.6503,0.5312 z m 8.4027,-3.4892 h 1.5942 L 31.8577,4.6803 Z m -2.4012,3.4892 v -1.1044 h 0.5459 L 30.8642,4.2075 H 30.1238 V 3.1028 h 3.5895 v 1.1047 h -0.7404 l 1.6546,6.3382 h 0.502 v 1.1044 H 32.4332 V 10.5457 H 33.186 L 32.8493,9.1148 H 30.816 l -0.3555,1.4309 h 0.73 v 1.1044 z m 11.8752,-6.152 v 3.7695 c 0,0.8388 -0.2072,1.4768 -0.6191,1.9097 -0.4122,0.4331 -1.0168,0.6486 -1.8116,0.6486 -0.7971,0 -1.4038,-0.2155 -1.8179,-0.6486 -0.4141,-0.4329 -0.6211,-1.0709 -0.6211,-1.9097 V 5.4981 c 0,-0.8388 0.207,-1.4749 0.6211,-1.9077 0.4141,-0.4332 1.0208,-0.6506 1.8179,-0.6506 0.7948,0 1.3994,0.2174 1.8116,0.6506 0.4119,0.4328 0.6191,1.0689 0.6191,1.9077 z M 39.0223,5.4122 c 0,-0.4414 -0.0754,-0.7614 -0.2239,-0.9644 -0.1483,-0.2026 -0.387,-0.3033 -0.7132,-0.3033 -0.3283,0 -0.567,0.1007 -0.7195,0.3033 -0.1508,0.203 -0.2259,0.523 -0.2259,0.9644 v 3.9285 c 0,0.4414 0.0751,0.7614 0.2259,0.9644 0.1525,0.2029 0.3912,0.3033 0.7195,0.3033 0.3262,0 0.5649,-0.1004 0.7132,-0.3033 0.1485,-0.203 0.2239,-0.523 0.2239,-0.9644 z m 7.1436,3.414 v 0.3555 c 0,0.8597 -0.2072,1.5165 -0.6214,1.9684 -0.4118,0.4498 -1.0145,0.6758 -1.8031,0.6758 -0.8033,0 -1.4119,-0.2345 -1.8241,-0.7008 -0.4141,-0.4685 -0.621,-1.1548 -0.621,-2.0605 V 5.927 c 0,-0.9896 0.1819,-1.7343 0.5459,-2.2363 0.364,-0.5 0.9099,-0.7509 1.6336,-0.7509 0.3076,0 0.5856,0.0522 0.8368,0.1568 0.2509,0.1046 0.4623,0.2616 0.6358,0.4708 V 3.0988 h 1.0794 v 2.577 H 44.8605 L 44.8481,5.4499 C 44.8166,5.0128 44.7205,4.6865 44.5572,4.4688 44.392,4.2534 44.1578,4.1445 43.8503,4.1445 c -0.362,0 -0.6296,0.1089 -0.8011,0.3286 -0.1738,0.2174 -0.2594,0.5607 -0.2594,1.025 v 3.7695 c 0,0.4643 0.0856,0.8053 0.2551,1.0188 0.1715,0.2154 0.4394,0.322 0.8054,0.322 0.3534,0 0.6191,-0.1128 0.7948,-0.341 0.1777,-0.226 0.2656,-0.5647 0.2656,-1.0126 V 8.8262 Z M 48.858,8.1609 h 1.5942 L 49.6738,4.6803 Z m -2.4013,3.4892 v -1.1044 h 0.546 L 48.6802,4.2075 H 47.9398 V 3.1028 h 3.5895 v 1.1047 h -0.7404 l 1.6546,6.3382 h 0.502 v 1.1044 h -2.6963 v -1.1044 h 0.7529 L 50.6653,9.1148 H 48.632 l -0.3554,1.4309 h 0.7299 v 1.1044 z m 7.3863,0 v -1.1044 h 0.841 V 4.1698 H 53.7174 V 5.6004 H 52.7009 V 3.1028 h 5.4595 v 2.4976 h -1.029 V 4.1698 h -0.9666 v 6.3759 h 0.8535 v 1.1044 z m 3.941,-0.6505 c 0,-0.205 0.0754,-0.3807 0.2239,-0.5313 0.1485,-0.1485 0.3243,-0.2239 0.5292,-0.2239 0.205,0 0.3807,0.0731 0.5293,0.2217 0.1485,0.1465 0.2236,0.3262 0.2236,0.5335 0,0.2049 -0.0751,0.3826 -0.2256,0.5292 -0.1508,0.1485 -0.3266,0.2217 -0.5273,0.2217 -0.2009,0 -0.3764,-0.0752 -0.5272,-0.2237 C 57.8594,11.376 57.784,11.2003 57.784,10.9996 Z M 62.3149,11.738 60.3757,4.2075 H 59.8904 V 3.1028 h 2.5228 v 1.1047 h -0.5774 l 1.0293,5.0329 1.0647,-5.0329 H 63.3169 V 3.1028 h 2.4097 v 1.1047 h -0.5272 l -1.8451,7.5305 z m 3.8239,-0.0879 v -1.1044 h 0.7027 V 4.2075 H 66.1388 V 3.1028 h 2.209 l 2.2717,5.8487 V 4.2075 H 69.9437 V 3.1028 h 2.5835 v 1.1047 h -0.7029 v 7.4908 H 70.5589 L 68.0717,5.3476 v 5.1981 h 0.6631 v 1.1044 z"
     style="fill:#e30016;fill-rule:evenodd"
     id="path5081"
     inkscape:connector-curvature="0" />
  <path
     d="M -0.0079,-3e-4 V 20.048 H 20.0403 V -3e-4 Z"
     style="fill:#ffffff;fill-rule:evenodd"
     id="path5083"
     inkscape:connector-curvature="0" />
  <path
     d="M -0.0079,14.7019 H 8.6797 9.3481 V 14.0335 6.014 h 2.6731 v 10.0244 l 4.0096,-1.3365 h 2.929 1.0803 52.9276 V 14.0335 H 20.0401 18.9598 16.0308 V 5.3459 L 12.0212,4.0093 V 5.3459 H 9.3481 8.6797 v 0.6681 8.0195 h -8.6876 z"
     style="fill:#e30016;fill-rule:evenodd"
     id="path5085"
     inkscape:connector-curvature="0" />
  <path
     d="m 25.079,18.2684 c 0.2384,0.0752 0.4209,0.1846 0.5459,0.3269 0.1259,0.1423 0.1888,0.3135 0.1888,0.5128 0,0.1703 -0.0289,0.3189 -0.0865,0.4456 -0.0569,0.1258 -0.1442,0.2296 -0.2605,0.3109 -0.117,0.0814 -0.2542,0.1406 -0.4121,0.1783 -0.1582,0.0374 -0.3592,0.0559 -0.6029,0.0559 h -1.577 v -0.1687 c 0.0638,-0.0173 0.1137,-0.0357 0.1503,-0.055 0.0368,-0.0201 0.0638,-0.047 0.0813,-0.0822 0.0182,-0.0349 0.0298,-0.0794 0.0349,-0.1326 0.0054,-0.0542 0.0079,-0.1225 0.0079,-0.2036 V 17.25 c 0,-0.0806 -0.0025,-0.1477 -0.0071,-0.2019 -0.0034,-0.0552 -0.0147,-0.0989 -0.0331,-0.1338 -0.0176,-0.034 -0.0445,-0.0612 -0.0814,-0.083 -0.0365,-0.021 -0.0873,-0.04 -0.1528,-0.0576 v -0.1686 h 1.6764 c 0.1914,0 0.3479,0.0096 0.4683,0.028 0.1608,0.0253 0.2997,0.0698 0.4179,0.1327 0.1054,0.0567 0.1885,0.1372 0.248,0.2412 0.0592,0.1041 0.0898,0.2279 0.0898,0.3714 0,0.3852 -0.2324,0.6743 -0.6961,0.8674 z m -0.796,-0.1326 c 0.1704,0 0.3041,-0.0247 0.4019,-0.0743 0.097,-0.0499 0.1704,-0.1196 0.2211,-0.2115 0.0505,-0.0909 0.0752,-0.2165 0.0752,-0.3772 0,-0.1418 -0.0272,-0.2535 -0.0814,-0.3365 -0.055,-0.0831 -0.1327,-0.1423 -0.2333,-0.1783 -0.1003,-0.0357 -0.2262,-0.0533 -0.3764,-0.0533 -0.1188,0 -0.235,0.0045 -0.3478,0.0122 v 1.2189 z m -0.3407,1.6554 c 0.1006,0.0054 0.2168,0.0079 0.3478,0.0079 0.1624,0 0.2962,-0.0201 0.4011,-0.0603 0.1046,-0.0403 0.1859,-0.11 0.2443,-0.2095 0.0579,-0.0998 0.0868,-0.237 0.0868,-0.4107 0,-0.1234 -0.0151,-0.228 -0.0457,-0.3164 C 24.9452,18.714 24.8998,18.6432 24.8377,18.5899 24.7768,18.5357 24.7034,18.4975 24.6178,18.472 24.533,18.4476 24.4264,18.4354 24.298,18.4354 h -0.3557 z m 4.1,-0.775 h -1.093 l -0.0839,0.2429 c -0.0244,0.0684 -0.0437,0.1347 -0.0593,0.1985 -0.015,0.0638 -0.0227,0.1318 -0.0227,0.2035 0,0.167 0.0882,0.2568 0.2665,0.269 v 0.1687 h -1.093 v -0.1687 c 0.0629,-0.0068 0.1179,-0.0298 0.1661,-0.0672 0.0479,-0.0377 0.0907,-0.0881 0.1301,-0.1528 0.0394,-0.0657 0.0813,-0.1581 0.1258,-0.2797 l 1.0676,-2.8438 h 0.6831 l 0.8447,2.8673 c 0.0377,0.1275 0.0692,0.2185 0.0944,0.2727 0.0255,0.0533 0.0587,0.0969 0.0998,0.1301 0.0408,0.0332 0.0986,0.0578 0.1721,0.0734 v 0.1687 h -1.4137 v -0.1687 c 0.089,-0.0105 0.1548,-0.0349 0.1976,-0.0743 0.0428,-0.0391 0.0638,-0.0952 0.0638,-0.1666 0,-0.0525 -0.0063,-0.112 -0.0176,-0.1766 -0.0122,-0.0647 -0.0315,-0.1469 -0.0595,-0.2455 z M 27.0471,18.7166 H 27.968 L 27.5593,17.276 Z m 2.4777,-3.4044 v 0.1721 l -0.8807,0.54 -0.1667,-0.1792 0.4612,-0.5329 z m -1.5228,0.2183 0.5573,0.642 -0.1817,0.1715 -0.5757,-0.4275 H 27.7741 L 27.1956,16.3412 27.0193,16.17 27.582,15.5305 Z m 1.9395,4.5683 v -0.1687 c 0.0717,-0.0122 0.1284,-0.0278 0.1704,-0.0479 0.0419,-0.0193 0.0734,-0.0473 0.0935,-0.0831 0.021,-0.0357 0.0332,-0.0813 0.0383,-0.1371 0.0054,-0.055 0.0079,-0.1242 0.0079,-0.2053 v -2.552 h -0.2069 c -0.1032,0 -0.1809,0.0113 -0.2358,0.036 -0.0545,0.0235 -0.1024,0.0609 -0.1426,0.1125 -0.0392,0.0508 -0.0743,0.1197 -0.1029,0.2053 -0.0289,0.0867 -0.0533,0.1678 -0.0717,0.2446 h -0.3513 v -0.898 h 3.0133 v 0.898 H 31.8025 C 31.7701,17.3869 31.7446,17.3024 31.7254,17.2471 31.7072,17.193 31.6862,17.1468 31.6636,17.1082 31.6397,17.07 31.6154,17.0376 31.5901,17.0121 31.5646,16.9869 31.5377,16.9659 31.5079,16.95 31.479,16.9353 31.4433,16.924 31.3997,16.916 31.356,16.9084 31.299,16.9047 31.2293,16.9047 H 31.045 v 2.552 c 0,0.0899 0.0026,0.159 0.0077,0.2053 0.0054,0.047 0.0142,0.0856 0.0281,0.1145 0.0138,0.0286 0.0306,0.0524 0.0498,0.0697 0.0202,0.0184 0.0471,0.034 0.082,0.049 0.0351,0.0148 0.0822,0.0261 0.1425,0.0349 v 0.1687 z m 5.1341,-3.4937 c 0.2849,0 0.5233,0.0218 0.7138,0.0663 0.1913,0.0445 0.3617,0.1145 0.5094,0.2098 0.1485,0.0961 0.269,0.2097 0.36,0.3415 0.0915,0.133 0.159,0.2866 0.2035,0.4612 0.0445,0.1749 0.0663,0.3722 0.0663,0.5925 0,0.2664 -0.0314,0.5048 -0.0935,0.7163 -0.0621,0.2123 -0.1554,0.3932 -0.2804,0.5425 -0.1099,0.1355 -0.2463,0.2464 -0.4079,0.3328 -0.1607,0.0876 -0.3469,0.1486 -0.5567,0.1846 -0.1808,0.0306 -0.4087,0.0462 -0.6831,0.0462 h -1.162 v -0.1687 c 0.063,-0.0173 0.1129,-0.0357 0.1494,-0.055 0.0369,-0.0201 0.0638,-0.047 0.0822,-0.0822 0.0176,-0.0349 0.0289,-0.0794 0.034,-0.1326 0.0054,-0.0542 0.008,-0.1225 0.008,-0.2036 V 18.43 h -0.4377 v -0.3223 h 0.4377 V 17.25 c 0,-0.0806 -0.0017,-0.1477 -0.0063,-0.2019 -0.0042,-0.0552 -0.0155,-0.0989 -0.0331,-0.1338 -0.0182,-0.034 -0.0454,-0.0612 -0.0819,-0.083 -0.0369,-0.021 -0.0876,-0.04 -0.1523,-0.0576 v -0.1686 z m 0.4071,1.8249 h -0.671 v 1.3595 c 0.0306,0.0043 0.1086,0.0071 0.2333,0.0071 0.1276,0 0.2404,-0.0125 0.3382,-0.0386 0.0898,-0.0218 0.1729,-0.0566 0.248,-0.1048 0.0683,-0.0445 0.1304,-0.1012 0.1871,-0.1712 0.0612,-0.0786 0.1125,-0.1679 0.1528,-0.2691 0.0445,-0.1091 0.0777,-0.2349 0.1006,-0.3784 0.0218,-0.1431 0.0332,-0.3092 0.0332,-0.4969 0,-0.3243 -0.0437,-0.5933 -0.1313,-0.8073 -0.0864,-0.214 -0.2086,-0.3722 -0.3668,-0.4737 -0.1581,-0.1012 -0.3469,-0.1519 -0.5669,-0.1519 -0.1057,0 -0.1817,0.0017 -0.2282,0.0054 v 1.1976 h 0.671 z m 3.4886,1.7099 c -0.5015,0 -0.8779,-0.1469 -1.1296,-0.4402 -0.2517,-0.2937 -0.3773,-0.7331 -0.3773,-1.3184 0,-0.3836 0.0601,-0.7121 0.1825,-0.9839 0.1222,-0.2725 0.3014,-0.4797 0.5389,-0.6211 0.2367,-0.1415 0.519,-0.2123 0.8467,-0.2123 0.5102,0 0.8938,0.1468 1.1497,0.4393 0.256,0.292 0.3836,0.7271 0.3836,1.3037 0,0.3223 -0.0377,0.5992 -0.1137,0.8308 -0.076,0.2316 -0.1843,0.421 -0.324,0.5695 -0.14,0.1485 -0.3076,0.2577 -0.5026,0.3277 -0.1956,0.07 -0.413,0.1049 -0.6542,0.1049 z m -0.6937,-1.8278 c 0,0.5156 0.0621,0.8991 0.186,1.1506 0.1233,0.2517 0.3129,0.3776 0.5672,0.3776 0.131,0 0.2426,-0.0352 0.3345,-0.1058 0.0927,-0.0717 0.167,-0.1703 0.2245,-0.2971 0.0567,-0.1275 0.0978,-0.2777 0.1222,-0.4515 0.0255,-0.1749 0.0377,-0.3654 0.0377,-0.574 0,-0.339 -0.0272,-0.6239 -0.0814,-0.8535 -0.0533,-0.2291 -0.1343,-0.4028 -0.2426,-0.5191 -0.1086,-0.117 -0.2475,-0.1757 -0.4159,-0.1757 -0.2474,0 -0.4317,0.1179 -0.5513,0.3549 -0.1205,0.2358 -0.1809,0.6009 -0.1809,1.0936 z m 0.9618,-2.7816 0.5783,0.642 -0.1817,0.1715 -0.6089,-0.4275 h -0.0278 l -0.6142,0.4275 -0.1766,-0.1715 0.5862,-0.642 z m 0.1242,4.9623 v 0.6273 H 38.662 v -0.6273 z m 4.8214,-3.8877 v 0.1686 c -0.068,0.0227 -0.1162,0.0411 -0.144,0.0567 -0.0289,0.015 -0.0524,0.036 -0.0725,0.0613 -0.0193,0.0252 -0.034,0.0646 -0.0445,0.1162 -0.0105,0.0524 -0.0151,0.1318 -0.0151,0.2392 v 2.8517 H 43.259 l -1.1523,-1.9911 c -0.1554,-0.2698 -0.269,-0.4813 -0.3424,-0.6349 h -0.0236 c 0.0173,0.3668 0.0261,0.7537 0.0261,1.1619 v 0.8246 c 0,0.1275 0.0062,0.2174 0.0184,0.2681 0.0131,0.0516 0.0366,0.0919 0.07,0.1216 0.0332,0.0304 0.095,0.0567 0.1877,0.0811 v 0.1687 h -0.968 v -0.1687 c 0.0637,-0.0173 0.1136,-0.0357 0.1502,-0.0567 0.0369,-0.0201 0.0638,-0.0482 0.0822,-0.083 0.0176,-0.0349 0.0289,-0.0786 0.034,-0.1318 0.0054,-0.0525 0.008,-0.12 0.008,-0.1993 v -2.2147 c 0,-0.1276 -0.0051,-0.2157 -0.0168,-0.2648 -0.0113,-0.0487 -0.034,-0.089 -0.0688,-0.1213 -0.0349,-0.0323 -0.0978,-0.0604 -0.1888,-0.0848 v -0.1686 h 1.0372 l 0.9059,1.5743 c 0.0567,0.0987 0.1301,0.2325 0.22,0.402 0.091,0.1684 0.1703,0.3282 0.2404,0.4776 h 0.0411 C 43.501,18.652 43.4914,18.2064 43.4914,17.7233 v -0.4762 c 0,-0.1108 -0.0043,-0.1905 -0.013,-0.2401 -0.008,-0.0499 -0.021,-0.0873 -0.0394,-0.1128 -0.0173,-0.0252 -0.042,-0.0471 -0.0718,-0.0638 -0.0294,-0.0173 -0.0793,-0.0357 -0.1493,-0.0567 v -0.1686 z m 3.1425,0.0944 v 0.7268 h -0.3503 c -0.0394,-0.1432 -0.0839,-0.2534 -0.1344,-0.3311 -0.0499,-0.0777 -0.1145,-0.1355 -0.1942,-0.1738 -0.0793,-0.0385 -0.1817,-0.0578 -0.3055,-0.0578 -0.1696,0 -0.3189,0.0516 -0.4482,0.1548 -0.1304,0.1031 -0.2324,0.2681 -0.3076,0.4943 -0.0751,0.2254 -0.1128,0.512 -0.1128,0.8581 0,0.2987 0.0252,0.5581 0.076,0.7775 0.0499,0.2191 0.1267,0.3886 0.2299,0.5103 0.104,0.1213 0.2316,0.1817 0.3835,0.1817 0.1494,0 0.2602,-0.0446 0.3319,-0.1347 0.0718,-0.089 0.1075,-0.2324 0.1075,-0.428 v -0.0978 c 0,-0.1293 -0.0034,-0.222 -0.0122,-0.2778 -0.0088,-0.0553 -0.0218,-0.0961 -0.0403,-0.1242 -0.0175,-0.0272 -0.0411,-0.049 -0.0697,-0.0663 -0.0289,-0.0167 -0.0805,-0.0369 -0.1539,-0.0587 v -0.1695 h 1.3104 v 0.1695 c -0.0856,0.0255 -0.1431,0.0542 -0.1737,0.0865 -0.0306,0.0323 -0.0516,0.0762 -0.063,0.1295 -0.0113,0.0542 -0.0167,0.1293 -0.0167,0.2271 v 0.9643 l -0.3685,0.0771 -0.174,-0.1845 c -0.2036,0.125 -0.4357,0.1871 -0.6988,0.1871 -0.498,0 -0.8702,-0.146 -1.1148,-0.4368 -0.2447,-0.2909 -0.3668,-0.7314 -0.3668,-1.3218 0,-0.3102 0.0436,-0.5837 0.1301,-0.8187 0.0873,-0.2358 0.2077,-0.4272 0.3625,-0.5749 0.1548,-0.1476 0.3286,-0.2551 0.5216,-0.3223 0.1939,-0.0674 0.4019,-0.1014 0.6239,-0.1014 0.3739,0 0.7163,0.0453 1.0281,0.1355 z m 2.1779,2.537 c 0.0428,0.2026 0.1145,0.3537 0.214,0.4544 0.0995,0.0995 0.2463,0.1494 0.4394,0.1494 0.1006,0 0.1905,-0.0168 0.271,-0.0508 0.0802,-0.0349 0.1448,-0.0898 0.193,-0.1652 0.049,-0.076 0.0734,-0.1713 0.0734,-0.2855 0,-0.1057 -0.0201,-0.1976 -0.0595,-0.2752 -0.0391,-0.0777 -0.1021,-0.1511 -0.1885,-0.222 -0.0876,-0.07 -0.2089,-0.1443 -0.3637,-0.2219 -0.1335,-0.0672 -0.2531,-0.1364 -0.3617,-0.2078 -0.1074,-0.0717 -0.199,-0.1503 -0.2741,-0.237 -0.076,-0.0856 -0.1355,-0.1797 -0.1775,-0.282 -0.0411,-0.1032 -0.062,-0.2175 -0.062,-0.3462 0,-0.2094 0.0516,-0.3877 0.1556,-0.5346 0.104,-0.1465 0.2551,-0.2585 0.4515,-0.3345 0.1976,-0.0751 0.4255,-0.1136 0.6852,-0.1136 0.1519,0 0.2968,0.0079 0.4348,0.0246 0.1381,0.0156 0.2962,0.0445 0.4737,0.0856 v 0.7424 H 51.0596 C 51.0273,17.2814 50.9854,17.1748 50.9355,17.0952 50.885,17.0158 50.8221,16.9571 50.747,16.9197 50.6718,16.882 50.5774,16.8636 50.4629,16.8636 c -0.0969,0 -0.1842,0.0167 -0.2613,0.0507 -0.0768,0.0349 -0.1369,0.0856 -0.1817,0.1528 -0.0437,0.0675 -0.0664,0.1486 -0.0664,0.2446 0,0.099 0.0193,0.1846 0.0579,0.2572 0.0382,0.0722 0.1029,0.1431 0.193,0.212 0.0907,0.0691 0.2217,0.1485 0.394,0.237 0.2104,0.1091 0.3756,0.2165 0.4952,0.3214 0.1205,0.1049 0.2098,0.2191 0.2665,0.3424 0.0567,0.1242 0.0856,0.2682 0.0856,0.4317 0,0.2095 -0.0479,0.3921 -0.146,0.5469 -0.0969,0.1536 -0.2384,0.2724 -0.4243,0.3554 -0.1863,0.0831 -0.4011,0.1242 -0.6449,0.1242 -0.1746,0 -0.3555,-0.0097 -0.5443,-0.0298 -0.1888,-0.0193 -0.3651,-0.0479 -0.5312,-0.0856 v -0.788 z m 4.1105,-0.2203 h -1.093 l -0.0839,0.2429 c -0.0244,0.0684 -0.0437,0.1347 -0.0593,0.1985 -0.015,0.0638 -0.0227,0.1318 -0.0227,0.2035 0,0.167 0.0882,0.2568 0.2665,0.269 v 0.1687 h -1.093 v -0.1687 c 0.0629,-0.0068 0.1179,-0.0298 0.1661,-0.0672 0.0479,-0.0377 0.0907,-0.0881 0.1301,-0.1528 0.0394,-0.0657 0.0813,-0.1581 0.1258,-0.2797 l 1.0676,-2.8438 h 0.6831 l 0.8447,2.8673 c 0.0377,0.1275 0.0692,0.2185 0.0944,0.2727 0.0255,0.0533 0.0587,0.0969 0.0998,0.1301 0.0408,0.0332 0.0987,0.0578 0.1721,0.0734 v 0.1687 h -1.4137 v -0.1687 c 0.089,-0.0105 0.1548,-0.0349 0.1976,-0.0743 0.0428,-0.0391 0.0638,-0.0952 0.0638,-0.1666 0,-0.0525 -0.0062,-0.112 -0.0176,-0.1766 -0.0122,-0.0647 -0.0314,-0.1469 -0.0595,-0.2455 z m -0.9952,-0.2996 h 0.9209 L 53.1329,17.276 Z m 0.5995,-2.3012 v -0.0201 c 0,-0.0638 0.0147,-0.1188 0.0453,-0.1667 0.0307,-0.0473 0.0647,-0.0944 0.1012,-0.1389 0.0369,-0.0456 0.0709,-0.0918 0.1015,-0.1397 0.0306,-0.0482 0.0454,-0.1023 0.0454,-0.1644 0,-0.0576 -0.0131,-0.1012 -0.0391,-0.131 -0.0264,-0.0306 -0.0638,-0.0453 -0.1112,-0.0453 -0.0533,0 -0.0969,0.0164 -0.1309,0.0487 -0.034,0.0323 -0.055,0.0961 -0.0638,0.1922 h -0.2718 v -0.2769 c 0.0926,-0.0445 0.18,-0.0794 0.2639,-0.1058 0.0839,-0.0269 0.1737,-0.0399 0.2718,-0.0399 0.0524,0 0.1074,0.0051 0.165,0.0155 0.0567,0.0105 0.1091,0.0273 0.1556,0.0499 0.0471,0.0227 0.0856,0.0533 0.1154,0.0907 0.0295,0.0377 0.0453,0.0848 0.0453,0.1406 0,0.0516 -0.0105,0.0973 -0.0314,0.1381 -0.0202,0.0411 -0.0454,0.0796 -0.0752,0.1145 -0.0297,0.0349 -0.0629,0.0683 -0.0986,0.0995 -0.036,0.0315 -0.0683,0.0638 -0.0989,0.0972 -0.0298,0.0332 -0.055,0.0681 -0.0751,0.1046 -0.021,0.0369 -0.0307,0.078 -0.0307,0.1225 v 0.0147 z m 5.095,0.1897 v 0.1686 c -0.0681,0.0227 -0.1162,0.0411 -0.144,0.0567 -0.0289,0.015 -0.0525,0.036 -0.0726,0.0613 -0.0193,0.0252 -0.034,0.0646 -0.0445,0.1162 -0.0105,0.0524 -0.015,0.1318 -0.015,0.2392 v 2.8517 h -0.65 l -1.1523,-1.9911 c -0.1553,-0.2698 -0.269,-0.4813 -0.3424,-0.6349 h -0.0235 c 0.0173,0.3668 0.026,0.7537 0.026,1.1619 v 0.8246 c 0,0.1275 0.0063,0.2174 0.0185,0.2681 0.013,0.0516 0.0365,0.0919 0.07,0.1216 0.0332,0.0304 0.0949,0.0567 0.1876,0.0811 v 0.1687 h -0.968 v -0.1687 c 0.0638,-0.0173 0.1137,-0.0357 0.1502,-0.0567 0.0369,-0.0201 0.0638,-0.0482 0.0822,-0.083 0.0176,-0.0349 0.029,-0.0786 0.0341,-0.1318 0.0054,-0.0525 0.0079,-0.12 0.0079,-0.1993 v -2.2147 c 0,-0.1276 -0.0051,-0.2157 -0.0167,-0.2648 -0.0114,-0.0487 -0.034,-0.089 -0.0689,-0.1213 -0.0349,-0.0323 -0.0978,-0.0604 -0.1888,-0.0848 v -0.1686 h 1.0372 l 0.906,1.5743 c 0.0567,0.0987 0.1301,0.2325 0.2199,0.402 0.091,0.1684 0.1704,0.3282 0.2404,0.4776 h 0.0411 c -0.0184,-0.407 -0.0281,-0.8526 -0.0281,-1.3357 v -0.4762 c 0,-0.1108 -0.0042,-0.1905 -0.013,-0.2401 -0.0079,-0.0499 -0.021,-0.0873 -0.0394,-0.1128 -0.0173,-0.0252 -0.042,-0.0471 -0.0717,-0.0638 -0.0295,-0.0173 -0.0794,-0.0357 -0.1494,-0.0567 v -0.1686 z"
     style="fill:#f8b23a;fill-rule:evenodd"
     id="path5087"
     inkscape:connector-curvature="0" />
</svg>
