<svg xmlns="http://www.w3.org/2000/svg" id="svg10156" height="200" width="200"><path id="path10148" d="M100 0a100 100 0 0 1 100 100A100 100 0 1 1 100 0z" fill="#fff" fill-rule="evenodd" stroke-width=".077"/><path id="path10150" d="M191.892 139.495a99.679 99.679 0 0 1-3.125 6.586l-29.292.002-39.495 13.169v-98.75H93.638v85.578H11.233a99.64 99.64 0 0 1-3.124-6.583h78.943v-85.58h32.918v-13.17l39.496 13.17v85.58z" fill="#e30016" fill-rule="evenodd" stroke-width=".077"/><path id="path10152" d="M100 0a100 100 0 0 1 100 100A100 100 0 1 1 100 0z" fill="#fff" fill-rule="evenodd" stroke-width=".077"/><path id="path10154" d="M191.892 139.495a99.679 99.679 0 0 1-3.125 6.586l-29.292.002-39.495 13.169v-98.75H93.638v85.578H11.233a99.64 99.64 0 0 1-3.124-6.583h78.943v-85.58h32.918v-13.17l39.496 13.17v85.58z" fill="#e30016" fill-rule="evenodd" stroke-width=".077"/></svg>