<svg id="Layer_1" xmlns="http://www.w3.org/2000/svg" width="100" height="50" viewBox="0 0 724.989 221.909"><path d="M422.679 160.544c-1.271 0-2.677-.383-3.82-1.272-2.428-1.796-3.317-5.113-1.916-7.911l42.5-87.555c1.152-2.175 3.318-3.58 5.746-3.58 2.416 0 4.715 1.405 5.746 3.58l42.75 87.422c1.534 3.063.258 6.889-2.939 8.418-3.185 1.663-7.018.258-8.547-2.802l-9.966-20.558c-6.627-1.9-13.641-2.166-21.178-.757-7.022 1.271-14.293 3.829-21.818 7.786-13.021 6.889-22.084 15.308-22.217 15.449-1.14 1.139-2.798 1.78-4.341 1.78zm42.509-79.382l-25.655 52.958a96.08 96.08 0 0 1 3.571-1.913c8.547-4.59 17.232-7.654 25.526-9.18 5.745-1.022 11.233-1.405 16.597-.902l-20.039-40.963zm-156.954 80.014h-69.699c-2.432 0-4.606-1.405-5.75-3.708-1.019-2.17-.769-4.856.761-6.776l61.388-77.12h-54.346c-3.459 0-6.394-2.811-6.394-6.395 0-3.588 2.935-6.394 6.394-6.394h67.645c2.436 0 4.611 1.405 5.758 3.583 1.031 2.3.769 4.856-.761 6.769l-61.393 77.249h56.395c3.459 0 6.403 2.818 6.403 6.398.002 3.45-2.942 6.394-6.401 6.394zm23.652.125c-3.455 0-6.395-2.807-6.395-6.395V67.177c0-3.45 2.939-6.394 6.395-6.394 3.583 0 6.394 2.943 6.394 6.394v87.729c-.001 3.588-2.811 6.395-6.394 6.395zm98.979-94.124c0 3.584-2.811 6.395-6.395 6.395h-28.009v81.335c0 3.588-2.931 6.395-6.394 6.395-3.584 0-6.394-2.807-6.394-6.395V73.571h-28.13c-3.583 0-6.398-2.811-6.398-6.395 0-3.588 2.815-6.394 6.398-6.394h68.926c3.586.001 6.396 2.807 6.396 6.395zm115.979 84.528c0 5.38-4.224 9.596-9.466 9.596-5.38 0-9.592-4.216-9.592-9.596a9.56 9.56 0 0 1 9.592-9.578c5.242 0 9.466 4.332 9.466 9.578zm36.714 9.854c-2.693 0-4.988-1.538-6.012-3.958l-36.58-88.507c-1.272-3.197.262-6.905 3.459-8.311 3.321-1.405 7.025.266 8.443 3.45l30.689 74.177 30.69-74.177c1.284-3.185 5.122-4.855 8.319-3.45 3.317 1.405 4.855 5.113 3.446 8.311l-36.573 88.507c-1.025 2.42-3.333 3.958-5.881 3.958zm135.037.125c-1.925 0-3.713-.89-4.993-2.295l-61.771-74.31v70.094c0 3.566-2.814 6.386-6.395 6.386-3.583 0-6.398-2.819-6.398-6.386V67.427c0-2.687 1.672-5.114 4.229-6.008 2.549-.902 5.371-.129 7.026 1.916l61.899 74.177V67.56c0-3.58 2.814-6.395 6.402-6.395 3.451 0 6.395 2.814 6.395 6.395v87.738c0 2.673-1.797 4.988-4.225 6.003-.769.258-1.534.383-2.169.383zM105.436 93.167c0 8.111-6.573 14.684-14.684 14.684-8.107 0-14.684-6.573-14.684-14.684 0-8.103 6.577-14.68 14.684-14.68 8.111 0 14.684 6.577 14.684 14.68z" fill="#09F"/><path fill="#09F" d="M91.941 0C41.158 0 0 41.162 0 91.94c0 14.684 3.455 28.553 9.579 40.859a91.728 91.728 0 0 0 2.104 3.949v-20.72h19.469v27.256H41.1v-6.062l12.327-12.33 13.416 13.411v22.284h10.161v-6.931h6.494v-18.562a43.86 43.86 0 0 1-21.743-11.213 50.094 50.094 0 0 1-1.505-1.48 45.316 45.316 0 0 1-4.44-5.45c-4.922-7.101-7.833-15.707-7.833-25.011 0-1.505.075-2.993.225-4.457 2.236-22.188 20.97-39.495 43.74-39.495 15.195 0 28.59 7.708 36.485 19.436a43.732 43.732 0 0 1 7.471 24.516 43.69 43.69 0 0 1-1.438 11.109 43.884 43.884 0 0 1-3.825 9.704l19.049 19.049V119.92h7.791v-10.377h3.026V87.899h3.467v21.207h4.756v33.33a91.462 91.462 0 0 0 14.692-41.57 91.66 91.66 0 0 0 .458-8.926C183.874 41.162 142.72 0 91.941 0z"/><path fill="#09F" d="M113.489 130.251a43.99 43.99 0 0 1-9.662 4.004v44.501h9.088v-14.713h5.188v-29.182l-2.162-2.157-2.452-2.453z"/><path d="M118.104 134.861v29.182h-5.188v.295h-9.088v-30.083a43.782 43.782 0 0 1-11.886 1.646c-2.889 0-5.716-.274-8.444-.807v18.562h-6.494v6.931H66.843v-22.284l-13.416-13.411L41.1 137.223v6.062h-9.949v-27.256H11.682v20.72a92.621 92.621 0 0 0 16.147 21.062c.744.724 1.484 1.447 2.245 2.146l18.251 18.554 42.688 43.399 42.057-41.361 9.695-9.521 5.787-5.709-5.787-5.795-24.661-24.663zm45.864-25.755V87.899H160.5v21.644h-3.026v10.377h-7.791v11.882l15.569 15.582a95.418 95.418 0 0 0 3.472-4.947v-33.33h-4.756z" fill="#06C"/></svg>