<?xml version="1.0" encoding="utf-8"?>
<!-- Generator: Adobe Illustrator 16.0.4, SVG Export Plug-In . SVG Version: 6.00 Build 0)  -->
<!DOCTYPE svg PUBLIC "-//W3C//DTD SVG 1.1//EN" "http://www.w3.org/Graphics/SVG/1.1/DTD/svg11.dtd">
<svg version="1.1" id="Layer_1" xmlns="http://www.w3.org/2000/svg" xmlns:xlink="http://www.w3.org/1999/xlink" x="0px" y="0px"
	 width="100px" height="50px" viewBox="0 0 724.989 221.909" enable-background="new 0 0 724.989 221.909"
	 xml:space="preserve">
<g>
	<path fill="#0099FF" d="M422.679,160.544c-1.271,0-2.677-0.383-3.82-1.272c-2.428-1.796-3.317-5.113-1.916-7.911l42.5-87.555
		c1.152-2.175,3.318-3.58,5.746-3.58c2.416,0,4.715,1.405,5.746,3.58l42.75,87.422c1.534,3.063,0.258,6.889-2.939,8.418
		c-3.185,1.663-7.018,0.258-8.547-2.802l-9.966-20.558c-6.627-1.9-13.641-2.166-21.178-0.757
		c-7.022,1.271-14.293,3.829-21.818,7.786c-13.021,6.889-22.084,15.308-22.217,15.449
		C425.88,159.903,424.222,160.544,422.679,160.544z M465.188,81.162l-25.655,52.958c1.144-0.637,2.299-1.272,3.571-1.913
		c8.547-4.59,17.232-7.654,25.526-9.18c5.745-1.022,11.233-1.405,16.597-0.902L465.188,81.162z"/>
	<path fill="#0099FF" d="M308.234,161.176h-69.699c-2.432,0-4.606-1.405-5.75-3.708c-1.019-2.17-0.769-4.856,0.761-6.776
		l61.388-77.12h-54.346c-3.459,0-6.394-2.811-6.394-6.395c0-3.588,2.935-6.394,6.394-6.394h67.645c2.436,0,4.611,1.405,5.758,3.583
		c1.031,2.3,0.769,4.856-0.761,6.769l-61.393,77.249h56.395c3.459,0,6.403,2.818,6.403,6.398
		C314.637,158.232,311.693,161.176,308.234,161.176z"/>
	<path fill="#0099FF" d="M331.886,161.301c-3.455,0-6.395-2.807-6.395-6.395V67.177c0-3.45,2.939-6.394,6.395-6.394
		c3.583,0,6.394,2.943,6.394,6.394v87.729C338.279,158.494,335.469,161.301,331.886,161.301z"/>
	<path fill="#0099FF" d="M430.865,67.177c0,3.584-2.811,6.395-6.395,6.395h-28.009v81.335c0,3.588-2.931,6.395-6.394,6.395
		c-3.584,0-6.394-2.807-6.394-6.395V73.571h-28.13c-3.583,0-6.398-2.811-6.398-6.395c0-3.588,2.815-6.394,6.398-6.394h68.926
		C428.055,60.783,430.865,63.589,430.865,67.177z"/>
	<path fill="#0099FF" d="M546.844,151.705c0,5.38-4.224,9.596-9.466,9.596c-5.38,0-9.592-4.216-9.592-9.596
		c0-5.246,4.212-9.578,9.592-9.578C542.62,142.127,546.844,146.459,546.844,151.705z"/>
	<path fill="#0099FF" d="M583.558,161.559c-2.693,0-4.988-1.538-6.012-3.958l-36.58-88.507c-1.272-3.197,0.262-6.905,3.459-8.311
		c3.321-1.405,7.025,0.266,8.443,3.45l30.689,74.177l30.69-74.177c1.284-3.185,5.122-4.855,8.319-3.45
		c3.317,1.405,4.855,5.113,3.446,8.311l-36.573,88.507C588.414,160.021,586.106,161.559,583.558,161.559z"/>
	<path fill="#0099FF" d="M718.595,161.684c-1.925,0-3.713-0.89-4.993-2.295l-61.771-74.31v70.094c0,3.566-2.814,6.386-6.395,6.386
		c-3.583,0-6.398-2.819-6.398-6.386V67.427c0-2.687,1.672-5.114,4.229-6.008c2.549-0.902,5.371-0.129,7.026,1.916l61.899,74.177
		V67.56c0-3.58,2.814-6.395,6.402-6.395c3.451,0,6.395,2.814,6.395,6.395v87.738c0,2.673-1.797,4.988-4.225,6.003
		C719.995,161.559,719.23,161.684,718.595,161.684z"/>
</g>
<g>
	<path fill="#0099FF" d="M105.436,93.167c0,8.111-6.573,14.684-14.684,14.684c-8.107,0-14.684-6.573-14.684-14.684
		c0-8.103,6.577-14.68,14.684-14.68C98.863,78.487,105.436,85.064,105.436,93.167z"/>
	<path fill="#0099FF" d="M91.941,0C41.158,0,0,41.162,0,91.94c0,14.684,3.455,28.553,9.579,40.859
		c0.665,1.334,1.372,2.644,2.104,3.949v-20.72h19.469v27.256H41.1v-6.062l12.327-12.33l13.416,13.411v22.284h10.161v-6.931h6.494
		v-18.562c-8.331-1.63-15.814-5.601-21.743-11.213c-0.516-0.486-1.014-0.977-1.505-1.48c-1.621-1.7-3.102-3.521-4.44-5.45
		c-4.922-7.101-7.833-15.707-7.833-25.011c0-1.505,0.075-2.993,0.225-4.457c2.236-22.188,20.97-39.495,43.74-39.495
		c15.195,0,28.59,7.708,36.485,19.436c4.719,7.005,7.471,15.441,7.471,24.516c0,3.842-0.507,7.562-1.438,11.109
		c-0.894,3.413-2.187,6.665-3.825,9.704l19.049,19.049V119.92h7.791v-10.377h3.026V87.899h3.467v21.207h4.756v29.414v3.916
		c6.793-10.314,11.578-22.076,13.769-34.731c0.391-2.241,0.694-4.536,0.923-6.839c0.287-2.931,0.458-5.916,0.458-8.926
		C183.874,41.162,142.72,0,91.941,0z"/>
	<path fill="#0099FF" d="M113.489,130.251c-3.018,1.696-6.257,3.048-9.662,4.004v44.501h9.088v-14.713h5.188v-29.182l-2.162-2.157
		L113.489,130.251z"/>
	<g>
		<path fill="#0066CC" d="M118.104,134.861v29.182h-5.188v0.295h-9.088v-30.083c-3.775,1.064-7.766,1.646-11.886,1.646
			c-2.889,0-5.716-0.274-8.444-0.807v18.562h-6.494v6.931H66.843v-22.284l-13.416-13.411L41.1,137.223v6.062h-9.949v-27.256H11.682
			v20.72c4.357,7.783,9.803,14.875,16.147,21.062c0.744,0.724,1.484,1.447,2.245,2.146l18.251,18.554l42.688,43.399l42.057-41.361
			l9.695-9.521l5.787-5.709l-5.787-5.795L118.104,134.861z"/>
		<path fill="#0066CC" d="M163.968,109.106V87.899H160.5v21.644h-3.026v10.377h-7.791v11.882l15.569,15.582
			c1.214-1.613,2.362-3.26,3.472-4.947v-3.916v-29.414H163.968z"/>
	</g>
</g>
</svg>
