<svg xmlns="http://www.w3.org/2000/svg" width="20" height="24"><path fill="#999" d="M2.97 16.97L10 24l7.03-7.03c3.88-3.88 3.88-10.18 0-14.06C13.15-.9 6.85-.9 2.97 2.9-.9 6.8-.9 13.1 2.97 16.98z"/><circle cx="10" cy="9.94" r="7.03" fill="#e6e6e6"/><g fill="#999"><path d="M13.8 9.4c0-.9-.75-1.65-1.66-1.65-.9 0-1.64.74-1.64 1.65 0 .9.73 1.64 1.64 1.64.9 0 1.65-.73 1.65-1.64zm-1.75 1.12c-.04 0-.07-.02-.07-.07v-.1c0-.08 0-.1-.08-.1-.1 0-.2-.04-.28-.08-.07-.03-.07-.05-.05-.12 0-.06.02-.1.04-.16l.1-.1c.1 0 .2.1.3.1.1 0 .2 0 .3-.1.1-.1.2-.2.1-.3l-.1-.1-.3-.2c-.1-.1-.2-.3-.2-.5 0-.3.2-.4.4-.5.1 0 .1 0 .1-.1V8c0-.04 0-.05.1-.05h.1c.18 0 .18 0 .18.12 0 .1 0 .1.1.12.1 0 .13 0 .2.03.05 0 .06.04.05.1 0 .04-.06.1-.1.16 0 .1-.02.1-.1.06-.1-.06-.2-.1-.32-.1-.04 0-.07 0-.1.05-.1 0-.1.13-.04.2l.17.06.3.12c.3.16.36.5.16.75-.05.1-.14.15-.25.2-.03 0-.1.02-.1.1v.2h-.16z"/><circle cx="248.6" cy="188.8" r="16.1" transform="translate(2.706 4.133) scale(.02833)"/><circle cx="417.7" cy="188.8" r="16.1" transform="translate(2.706 4.133) scale(.02833)"/><path d="M15.78 6.7H8.6c-.4 0-.74.35-.74.76v2.5h.63V8.3l.2.02c.4 0 .7-.34.7-.76v-.2H15v.15c0 .4.34.8.76.8h.13v2.3h-.2c-.4 0-.8.4-.8.8v.2h-4v.7h4.7c.4 0 .7-.3.7-.7v-4c0-.4-.4-.7-.8-.7zm-12.3 3.68c.4.16.95.24 1.53.24.4 0 .6-.02.9-.07.2-.1.4-.22.6-.3.3-.1.6-.17.9-.22v-2.4c0-.2-.1-.53-.7-.77-.4-.16-1-.26-1.6-.26-.5 0-1.1.1-1.5.24-.6.24-.7.55-.7.78v4.96c0 .22.2.54.8.78.4.15 1 .24 1.6.24h.4v-.52H5c-.5 0-1-.06-1.35-.2-.35-.13-.44-.26-.44-.3v-.3l.3.1c.4.16 1 .24 1.6.24h.4v-.56c-.1.02-.2.02-.3.02-.5 0-1-.08-1.3-.2-.3-.15-.4-.28-.4-.3v-.33l.3.1c.4.17 1 .25 1.6.25h.4v-.13c0-.1 0-.27.1-.43l-.5.03c-.5 0-1-.07-1.34-.2-.4-.14-.47-.27-.47-.3v-.33c.1.04.17.08.27.1zm.17-3.06c.36-.14.84-.2 1.36-.2.6 0 1 .06 1.4.2.4.12.5.25.5.3 0 .05-.1.17-.4.3-.3.13-.8.2-1.3.2s-1-.07-1.3-.2c-.3-.13-.4-.27-.4-.3 0-.03.1-.17.5-.3zm-.44.96c.1.04.2.08.3.1.4.17 1 .25 1.6.25.6 0 1.2-.08 1.6-.24l.3-.2v.3s-.1.1-.4.3c-.3.1-.8.2-1.3.2s-1-.1-1.3-.2c-.3-.2-.4-.3-.4-.3v-.3zm0 1l.3.1c.4.16 1 .25 1.6.25.6 0 1.2-.1 1.6-.24l.3-.2v.3s-.1.1-.4.3c-.3.1-.8.2-1.3.2s-1-.1-1.3-.2c-.3-.2-.4-.3-.4-.3v-.3z"/><path d="M9.73 10.7c-.4-.14-.96-.23-1.54-.23-.6 0-1.2.1-1.6.24-.7.3-.8.6-.8.8v3c0 .3.1.6.7.8.4.2.9.3 1.5.3.5 0 1.1-.1 1.5-.2.6-.2.7-.5.7-.8v-3c0-.2-.2-.5-.8-.8zm-2.9.5c.36-.14.85-.2 1.36-.2.5 0 1 .06 1.3.2.3.12.4.25.4.3 0 .04-.1.17-.5.3-.4.13-.9.2-1.4.2-.6 0-1-.07-1.4-.2-.4-.14-.5-.27-.5-.3 0-.04 0-.18.4-.3zm2.72 3.56c-.36.14-.84.2-1.36.2-.6 0-1-.06-1.4-.2-.4-.13-.5-.26-.5-.3v-.32l.2.12c.4.15.9.24 1.5.24s1.1-.1 1.5-.24l.2-.12v.32c0 .04-.1.17-.5.3zm.44-1.3c-.1.05-.1.18-.5.3-.4.14-.9.2-1.4.2-.5 0-1-.06-1.4-.2-.4-.13-.5-.26-.5-.3v-.3l.2.1c.4.16.9.24 1.5.24s1.1-.08 1.5-.24l.2-.1zm0-1v.02c-.1.04-.1.17-.5.3-.4.13-.9.2-1.4.2-.5 0-1-.07-1.4-.2-.4-.14-.5-.27-.5-.3v-.32l.2.1c.4.17.9.25 1.5.25s1.1 0 1.5-.2l.2-.1z"/></g><path fill="#ccc" fill-opacity=".54" d="M5.36 9.94C5.36 6.06 7.44 2.9 10 2.9c-3.88 0-7.03 3.16-7.03 7.04s3.15 7.03 7.03 7.03c-2.56 0-4.64-3.15-4.64-7.03z"/></svg>