<svg xmlns="http://www.w3.org/2000/svg" width="77" height="41"><g transform="translate(0 -487.24) scale(1.34726)"><path fill="#e04f5f" d="M53.24 368.65c1.65 0 3 1.35 3 3v16.54c0 1.6-1.35 3-3 3H3.9c-1.66 0-3-1.4-3-3v-16.6c0-1.66 1.34-3 3-3h49.34m0-.9H3.9c-2.15 0-3.9 1.75-3.9 3.9v16.53c0 2.13 1.75 3.88 3.9 3.88h49.34c2.14 0 3.9-1.74 3.9-3.9v-16.5c0-2.13-1.76-3.9-3.9-3.9z"/><ellipse cx="13.94" cy="385.57" fill="#ccc" ry="1.16" rx="5.81"/><path fill="#f91e1e" d="M13.95 361.7c-4.55 0-8.24 3.7-8.24 8.25 0 3.25 1.9 6.06 4.68 7.4l3.62 8.22z"/><path fill="#e21b1b" d="M13.95 385.57l3.6-8.22a8.22 8.22 0 0 0 4.63-7.4c0-4.55-3.7-8.24-8.23-8.24v23.9z"/><path fill="#fff" d="M13.95 367.1c1.57 0 2.84 1.28 2.84 2.85s-1.3 2.85-2.9 2.85c-1.58 0-2.85-1.28-2.85-2.85s1.26-2.85 2.84-2.85z"/><text x="26.63" y="383.08" stroke-width=".11" style="line-height:1.25" font-size="4.46" font-family="sans-serif" letter-spacing="0" word-spacing="0"><tspan x="26.63" y="383.08" style="-inkscape-font-specification:'Segoe UI Bold'" font-weight="bold" font-size="7.14" font-family="Segoe UI">Định Vị</tspan></text></g></svg>