<svg xmlns="http://www.w3.org/2000/svg" width="20" height="24"><path fill="#ff4500" d="M2.97 16.97L10 24l7.03-7.03c3.88-3.88 3.88-10.18 0-14.06C13.15-.94 6.85-.94 2.97 2.9-.9 6.8-.9 13.1 2.97 16.98z"/><circle cx="10" cy="9.94" r="7.03" fill="#e6e6e6"/><g fill="#ff4500"><path d="M14.4 12.8v4.16h2.52v-2.7m-13.84 2.7H5.6V12.8l-2.5 1.47m2.95-2.87v5.56h2.6V14.6c0-.74.6-1.34 1.34-1.34.72 0 1.32.6 1.32 1.34v2.36h2.6V11.4L10 8.1z"/><path d="M10.3 4.07h-.6v.7h-1v.62h.97v.96L4.3 10.8l.68.83L10 7.5l5.02 4.13.67-.82-5.4-4.4v-1h.96v-.6h-.97"/></g><path fill="#ccc" fill-opacity=".54" d="M5.36 9.94C5.36 6.06 7.44 2.9 10 2.9c-3.88 0-7.03 3.16-7.03 7.04s3.15 7.03 7.03 7.03c-2.56 0-4.64-3.15-4.64-7.03z"/></svg>