<svg xmlns="http://www.w3.org/2000/svg" width="20" height="24"><path fill="#999" d="M2.97 16.97L10 24l7.03-7.03c3.88-3.88 3.88-10.18 0-14.06C13.15-.95 6.85-.95 2.97 2.9-.9 6.8-.9 13.1 2.97 16.98z"/><circle cx="10" cy="9.94" r="7.03" fill="#e6e6e6"/><path fill="#999" d="M15.14 5.72H5.04v1.26h10.1zm.63 6.3v-1.26l-.63-3.15H5.04l-.62 3.17v1.26h.63v3.78h6.3v-3.77h2.52v3.78h1.27v-3.77zm-5.68 2.52H6.3v-2.52h3.8z"/><path fill="#ccc" fill-opacity=".54" d="M5.36 9.94C5.36 6.06 7.44 2.9 10 2.9c-3.88 0-7.03 3.16-7.03 7.04s3.15 7.03 7.03 7.03c-2.56 0-4.64-3.15-4.64-7.03z"/></svg>