<svg xmlns="http://www.w3.org/2000/svg" width="20" height="24"><path fill="olive" d="M2.97 16.97L10 24l7.03-7.03c3.88-3.88 3.88-10.18 0-14.06C13.15-.93 6.85-.93 2.97 2.9-.9 6.8-.9 13.1 2.97 16.98z"/><circle cx="10" cy="9.94" r="7.03" fill="#e6e6e6"/><path fill="#ccc" fill-opacity=".54" d="M5.36 9.94C5.36 6.06 7.44 2.9 10 2.9c-3.88 0-7.03 3.16-7.03 7.04s3.15 7.03 7.03 7.03c-2.56 0-4.64-3.15-4.64-7.03z"/><path fill="olive" d="M15.23 6.54l-.55-1.08c-.12-.23-.4-.32-.62-.2-.23.1-.32.4-.2.6l.37.75c-.6.2-1.03.8-1.03 1.48V9.2c0 .2.15.33.34.33h.82v1.16c0 .5-.42.9-.93.9h-.56V5.7c0-.47-.38-.85-.85-.85H7.95c-.6 0-1.07.48-1.07 1.07v7.77c-.37.1-.65.4-.65.8v.5c0 .2.15.36.34.36h6.6c.2 0 .35-.16.35-.35v-.5c0-.4-.28-.73-.65-.82v-1.15h.56c1.02 0 1.85-.83 1.85-1.85V6.76c0-.08-.02-.15-.05-.2zM11.4 8.27H8.35c-.16 0-.3-.13-.3-.3V6.32c0-.15.14-.28.3-.28h3.07c.17 0 .3.13.3.3V8c0 .16-.13.3-.3.3z"/></svg>