<svg xmlns="http://www.w3.org/2000/svg" width="20" height="24"><path fill="#999" d="M2.97 16.97L10 24l7.03-7.03c3.88-3.88 3.88-10.18 0-14.06C13.15-.9 6.85-.9 2.97 2.9-.9 6.8-.9 13.1 2.97 16.98z"/><circle cx="10" cy="9.94" r="7.03" fill="#e6e6e6"/><g fill="#999"><path d="M9.7 9.03c.55.18 1.15-.12 1.34-.68.2-.55-.1-1.16-.67-1.34-.56-.1-1.16.2-1.35.7-.2.6.1 1.2.67 1.4z"/><path d="M14.72 5h-.76c-.1 0-.17.07-.17.17V6h-1.2l-.2-.06c-.1-.02-.2 0-.3.06H7.8c-.07-.04-.15-.07-.24-.06-.05 0-.1.03-.16.06H6.28v-.83c0-.1-.08-.17-.17-.17h-.7c-.1 0-.15.07-.15.17V7.3c0 .1.07.17.17.17h.76c.1 0 .2-.07.2-.17v-.83h1L7.5 8.3s.03.1.1.2h.02L8.8 10h.02v2.3l-.94 2.8c-.07.2.02.4.22.5.22.1.48 0 .58-.2l1.48-3h.13l.9 1.1-.3 1.6c-.03.2.1.4.3.5.22.04.47-.08.55-.3l.63-1.87c.05-.16.03-.3-.06-.46l-.03-.05-1-1.4V10l.03-.02 1.2-1.5h.1c.06-.07.1-.14.1-.2l.15-1.84h1v.83c0 .1.1.16.17.16h.77c.1 0 .15-.07.15-.17V5.2c0-.1-.1-.18-.2-.18zm-3 3l-.48.48c-.2.5-.67.83-1.2.83h-.42c-.33-.1-.6-.3-.75-.6l-.05-.1-.48-.5-.3-1.5h3.98z"/></g><path fill="#ccc" fill-opacity=".54" d="M5.36 9.94C5.36 6.06 7.44 2.9 10 2.9c-3.88 0-7.03 3.16-7.03 7.04s3.15 7.03 7.03 7.03c-2.56 0-4.64-3.15-4.64-7.03z"/></svg>