<svg xmlns="http://www.w3.org/2000/svg" width="20" height="24"><path fill="gold" d="M2.97 16.97L10 24l7.03-7.03c3.88-3.88 3.88-10.18 0-14.06C13.15-.9 6.85-.9 2.97 2.9-.9 6.8-.9 13.1 2.97 16.98z"/><circle cx="10" cy="9.94" r="7.03" fill="#e6e6e6"/><path fill="gold" d="M7.8 7.85c.06 0 .1-.03.1-.08.02-.02 0-.05 0-.08 0-.1.04-.1.13 0 .1 0 .17.1.17.2 0 0 .04.1.08.1h3.35c.04 0 .07-.1.07-.1 0-.1.1-.2.18-.3.1-.1.15-.1.13-.1h.3l.1-.1V7s-.1.08-.3.08-.5 0-.9-.24c-.2-.17-.4-.36-.5-.5-.1-.27-.1-.5-.1-.5h.1c.3 0 .4-.1.4-.1l-.3-.2c-.2-.1-.3-.2-.3-.23v-.5c0-.2-.1-.5-.1-.8 0-.3-.1-.3-.1 0l-.1.8-.04.6s-.1.2-.25.3l-.3.2h-.1V6s.1.1.4.1h.1c.08 0 .07.26-.1.5-.13.17-.3.35-.6.5-.34.24-.7.3-.9.3-.2 0-.3-.05-.3-.05v.14c0 .1-.03.2-.03.2v.1h.1zm-1.86 2.6c.04 0 .1-.04.12-.08.02-.03.03-.07.03-.1l-.1-.1c-.1-.04-.1-.08-.1-.1 0 0 .1.1.3.2.1.1.3.15.3.18 0 .04 0 .07.1.07h6.1c.3 0 .5-.03.5-.07 0-.03.1-.08.3-.18l.3-.2c0 .02 0 .06-.1.1l-.1.1v.1l.1.07c.1 0 .2-.04.2-.15 0-.1-.1-.1-.1-.1-.08-.1-.1-.2-.1-.3s0-.2-.07-.2h-.14c-.06 0-.35.1-.65 0-.2-.1-.4-.1-.58-.2-.6-.4-.8-1-.83-1h-.04l-.02-.1s-.05-.1-.07-.1H8s-.25.7-.83 1c-.2.1-.38.2-.54.2-.3.1-.6 0-.65-.04-.06-.05-.12-.1-.14-.07-.02 0-.03.1-.03.2v.4c0 .1.2.2.2.2zm8.23 2.27c-.03-.05-.07-.15-.07-.25s0-.18-.03-.2l-.14.07c-.06.04-.35.12-.65.07-.16 0-.34 0-.53-.2-.6-.3-.83-.9-.84-.9H8.2l-.04.1v.1H8.1s-.25.7-.83 1c-.2.1-.37.2-.53.2-.3.1-.6 0-.66 0-.04 0-.1-.1-.12-.02-.02 0-.03.1-.03.2s-.04.2-.06.27c-.03 0-.04.05-.03.1 0 .1.15.14.2.14.06 0 .1-.06.14-.1l.02-.2-.05-.1c-.02 0-.05-.05-.05-.1 0 0 .1.1.3.2.16.1.3.17.3.2 0 .05.05.1.1.1H7c.06 0 .12 0 .12.05s.12.1.26.1.24 0 .24.03l-.1.7-.06.8c0 .3-.1.58-.1.8v.1c0 .06-.03.08-.1.08-.06 0-.1.06-.1.1 0 .08-.1.1-.23.1s-.22.28-.22.58c0 .3.3.57.6.57H13c.3 0 .53-.3.53-.6s-.1-.55-.2-.55c-.13 0-.22 0-.22-.1 0-.08 0-.1-.1-.1 0 0-.1 0-.1-.1 0-.3 0-.57-.1-.85v-.9l-.1-.77v-.1s.1-.05.3-.05.3-.06.3-.1.1-.1.2-.1.2 0 .2-.06.2-.1.4-.2l.3-.2-.1.1v.1c0 .04 0 .1.07.1l.1.1c.1 0 .23-.04.24-.15 0-.04-.06-.1-.07-.1zm-4.36.6v.75l-.1.85c0 .3-.1.57-.1.84v.07c0 .04 0 .07-.1.07 0 0-.1.04-.1.1 0 .07-.2.1-.5.1s-.5-.04-.5-.1c0-.06 0-.1-.1-.1s-.1-.03-.1-.07v-.07c0-.27-.1-.55-.1-.84l-.1-.85-.1-.74v-.06c0-.04.1-.07.3-.07s.3-.04.3-.08.2-.08.5-.08.5.04.5.08.2.08.3.08.3.03.3.07v.06zm2.3 0v.75l-.1.85c0 .3-.1.57-.1.84v.07c0 .04 0 .07-.1.07s-.1.04-.1.1c0 .07-.2.1-.5.1-.2 0-.5-.04-.5-.1 0-.06 0-.1-.1-.1 0 0-.1-.03-.1-.07v-.07c0-.27 0-.55-.1-.84v-.85l-.1-.74v-.06c0-.04.1-.07.3-.07s.3-.04.3-.08.3-.08.5-.08c.3 0 .5.04.5.08s.2.08.3.08.3.03.3.07v.06z"/><path fill="#ccc" fill-opacity=".54" d="M5.36 9.94C5.36 6.06 7.44 2.9 10 2.9c-3.88 0-7.03 3.16-7.03 7.04s3.15 7.03 7.03 7.03c-2.56 0-4.64-3.15-4.64-7.03z"/></svg>