<svg xmlns="http://www.w3.org/2000/svg" width="20" height="24"><path fill="#999" d="M2.97 16.97L10 24l7.03-7.03c3.88-3.88 3.88-10.18 0-14.06C13.15-.93 6.85-.93 2.97 2.9-.9 6.8-.9 13.1 2.97 16.98z"/><circle cx="10" cy="9.94" r="7.03" fill="#e6e6e6"/><path fill="#999" d="M16.77 15.35l.02-.16V9.13c0-.3-.27-.52-.55-.52H13.4v6.4c0 .1-.02.2-.05.3H13c.03-.05.04-.1.04-.16V6.9c0-.3-.23-.52-.52-.52h-4.5c-.3 0-.53.23-.53.52v8.42h-.35c-.03-.1-.05-.2-.05-.3v-6.4H4.3c-.3 0-.5.23-.5.52v6.02l.02.15h-.88v1.1H17.6v-1.1zm-11.4-2.1H4.6v-.75h.74zm0-1.3H4.6v-.75h.74zm0-1.27H4.6v-.74h.74zm1.14 2.56h-.7v-.74h.75zm0-1.3h-.7v-.74h.75zm0-1.26h-.7v-.74h.75zm4.95 4.64h-2.2V12.6h2.2zm-1.15-5.04c-1 0-1.84-.82-1.84-1.82s.82-1.83 1.83-1.83c1 0 1.8.82 1.8 1.83 0 1-.83 1.82-1.83 1.82zm4.7 2.96h-.75v-.74H15zm0-1.3h-.75v-.74H15zm0-1.26h-.75v-.74H15zm1.14 2.56h-.74v-.74h.73zm0-1.3h-.74v-.74h.73zm0-1.26h-.74v-.74h.73zM10.74 8h.7v.9h-.7v.7h-.9v-.7h-.7V8h.7v-.7h.9z"/><path fill="#ccc" fill-opacity=".54" d="M5.36 9.94C5.36 6.06 7.44 2.9 10 2.9c-3.88 0-7.03 3.16-7.03 7.04s3.15 7.03 7.03 7.03c-2.56 0-4.64-3.15-4.64-7.03z"/></svg>