<svg xmlns="http://www.w3.org/2000/svg" width="20" height="24"><path fill="#4682b4" d="M2.97 16.97L10 24l7.03-7.03c3.88-3.88 3.88-10.18 0-14.06C13.15-.9 6.85-.9 2.97 2.9-.9 6.8-.9 13.1 2.97 16.98z"/><circle cx="10" cy="9.94" r="7.03" fill="#e6e6e6"/><g fill="#4682b4"><path d="M11.2 12.35H4.72c-.07.1-.12.2-.12.33s.05.25.14.34h6.52c.08-.1.14-.2.14-.34 0-.13-.05-.24-.12-.33zm-3.2 3c1.52 0 2.82-.1 3.36-1 .17-.3.26-.66.26-1.14H4.38c0 2 1.62 2.2 3.62 2.2zm-3.2-3.2h6.82c0-.73-.22-1.4-.6-2-.65-.95-1.76-1.6-3.02-1.6-2 0-3.62 1.62-3.62 3.62h.26zm5.38-1.83c.17.16.05.42-.1.5-.17.08-.43.02-.48-.2v-.7zm-2.42.34l.33-.63.3.63c.1.23-.2.4-.4.4s-.4-.18-.3-.4zm-1.8-.46l.6-.38-.04.7c-.04.24-.32.28-.48.2-.15-.1-.25-.36-.08-.52z"/><path d="M15.7 6.65h-2.3c0-1.18-.87-2.16-2.08-2.17-.26 0-.26.4 0 .4 1 .02 1.67.8 1.66 1.77h-2.5v.64h.3l.2 2.5c.52.6.83 1.4.83 2.3v.2h-.3c.1.1.1.2.1.3s0 .24-.1.34h.4v.2c0 .63-.17 1.1-.44 1.43v.17h3.46l.56-7.5h.3V6.6z"/></g><path fill="#ccc" fill-opacity=".54" d="M5.36 9.94C5.36 6.06 7.44 2.9 10 2.9c-3.88 0-7.03 3.16-7.03 7.04s3.15 7.03 7.03 7.03c-2.56 0-4.64-3.15-4.64-7.03z"/></svg>