<svg xmlns="http://www.w3.org/2000/svg" width="20" height="24"><path fill="#999" d="M2.97 16.97L10 24l7.03-7.03c3.88-3.88 3.88-10.18 0-14.06C13.15-.95 6.85-.95 2.97 2.9-.9 6.8-.9 13.1 2.97 16.98z"/><circle cx="10" cy="9.94" r="7.03" fill="#e6e6e6"/><path fill="#999" d="M13.7 9.06c-.07 0-.14 0-.2.02-.05-1.62-1.37-2.93-3-2.93-.7 0-1.36.25-1.87.66-.5-1.26-1.3-2.02-2.16-2.02C4.97 4.75 3.8 6.93 3.8 9.7c0 2.68 1.1 4.78 2.5 4.93v2.14c0 .1.08.16.17.16.1 0 .15-.06.15-.16V14.6c1-.1 1.87-1.2 2.27-2.9.4.27.86.42 1.36.46v4.6c0 .1.06.15.15.15.1 0 .16-.04.16-.13v-4.6c.34 0 .67-.07 1-.2.27.86 1.04 1.5 1.97 1.56v3.24c0 .1.06.15.15.15.08 0 .15-.05.15-.14v-3.24a2.227 2.227 0 0 0 2.06-2.22c0-1.24-.98-2.24-2.2-2.24zM6.6 14.3v-3.63c0-.1-.06-.15-.15-.15-.1 0-.16.06-.16.15v3.64c-1.23-.13-2.2-2.14-2.2-4.6 0-2.55 1.05-4.62 2.36-4.62.74 0 1.46.73 1.9 1.95-.55.55-.88 1.3-.88 2.15 0 .96.44 1.8 1.13 2.35-.36 1.62-1.13 2.68-2 2.8zm4.9-2.62c-.32.1-.63.16-.93.18V11l1.28-1.3c.06-.06.06-.15 0-.2-.06-.07-.15-.07-.2 0l-1.1 1.07V8.65c0-.1-.05-.15-.14-.15-.1 0-.14.06-.14.15v1.93L9.2 9.5c-.06-.06-.15-.06-.2 0-.07.06-.07.15 0 .2l1.3 1.3v.86c-1.4-.1-2.5-1.28-2.5-2.7 0-1.48 1.2-2.7 2.7-2.7 1.47 0 2.68 1.2 2.7 2.66-.98.23-1.7 1.1-1.7 2.18 0 .12 0 .26.02.38zm2.33 1.53v-.6l.92-.93c.06-.06.06-.15 0-.2-.06-.07-.15-.07-.2 0l-.72.7v-1.3c0-.08-.07-.14-.16-.14-.1 0-.16.06-.16.15v1.3l-.7-.72a.157.157 0 0 0-.22 0c-.05.06-.05.15 0 .2l.94.94v.6c-1-.06-1.76-.9-1.76-1.9 0-1.07.86-1.92 1.9-1.92 1.08 0 1.93.87 1.93 1.92 0 1-.78 1.82-1.76 1.9z"/><path fill="#ccc" fill-opacity=".54" d="M5.36 9.94C5.36 6.06 7.44 2.9 10 2.9c-3.88 0-7.03 3.16-7.03 7.04s3.15 7.03 7.03 7.03c-2.56 0-4.64-3.15-4.64-7.03z"/></svg>