<svg xmlns="http://www.w3.org/2000/svg" width="20" height="24"><path fill="#00bfff" d="M2.97 16.97L10 24l7.03-7.03c3.88-3.88 3.88-10.18 0-14.06C13.15-.95 6.85-.95 2.97 2.9-.9 6.8-.9 13.1 2.97 16.98z"/><circle cx="10" cy="9.94" r="7.03" fill="#e6e6e6"/><path fill="#00bfff" d="M11.1 15.82c-1.43-.15-2.52-1.33-2.5-2.75 0-1.4 1.1-2.55 2.5-2.7zm.6-5.45v5.45c1.4-.15 2.48-1.3 2.5-2.7 0-1.42-1.1-2.6-2.5-2.75zM6.97 6.1l-2.4 1.6c-.45.32-.76.8-.87 1.35-.1.55 0 1.1.33 1.57l.1.16c.4.57 1.05.92 1.74.92.42 0 .83-.13 1.18-.37L9.43 9.7zm5.9-1.26l-.1-.16c-.4-.58-1.04-.92-1.74-.92-.42 0-.83.13-1.18.36L7.47 5.74l2.47 3.63 2.38-1.62c.96-.65 1.2-1.96.55-2.9z"/><path fill="#ccc" fill-opacity=".54" d="M5.36 9.94C5.36 6.06 7.44 2.9 10 2.9c-3.88 0-7.03 3.16-7.03 7.04s3.15 7.03 7.03 7.03c-2.56 0-4.64-3.15-4.64-7.03z"/></svg>