<svg id="Layer_1" xmlns="http://www.w3.org/2000/svg" viewBox="0 0 512.001 512.001"><path d="M106.039 362.039L256 512.001l149.962-149.962c82.821-82.821 82.821-217.102 0-299.923s-217.102-82.821-299.923 0c-82.822 82.823-82.822 217.102 0 299.923z" fill="#f95428"/><circle cx="256.005" cy="212.084" r="149.964" fill="#e6e6e6"/><path d="M156.934 212.079c0-82.821 44.354-149.962 99.067-149.962-82.821 0-149.962 67.14-149.962 149.962S173.179 362.04 256 362.04c-54.712-.001-99.066-67.14-99.066-149.961z" fill="#ccc"/><path d="M240.994 104.825c0 91.758-64.937 76.23-63.526 138.344.798 35.068 30.314 55.146 63.444 59.047-7.94-9.176-42.965-54.868 11.374-91.515 1.744 35.322 31.057 40.938 31.057 66.349 0 10.701-2.255 17.887-4.864 22.631 27.338-7.147 50.508-26.202 54.271-57.923 9.885-83.289-91.756-136.933-91.756-136.933z" fill="#f95428"/></svg>