<?xml version="1.0" encoding="UTF-8" standalone="no"?>
<!-- Generator: Adobe Illustrator 19.0.0, SVG Export Plug-In . SVG Version: 6.00 Build 0)  -->

<svg
   xmlns:dc="http://purl.org/dc/elements/1.1/"
   xmlns:cc="http://creativecommons.org/ns#"
   xmlns:rdf="http://www.w3.org/1999/02/22-rdf-syntax-ns#"
   xmlns:svg="http://www.w3.org/2000/svg"
   xmlns="http://www.w3.org/2000/svg"
   xmlns:sodipodi="http://sodipodi.sourceforge.net/DTD/sodipodi-0.dtd"
   xmlns:inkscape="http://www.inkscape.org/namespaces/inkscape"
   version="1.1"
   id="Layer_1"
   x="0px"
   y="0px"
   viewBox="0 0 20.000001 24.000001"
   xml:space="preserve"
   sodipodi:docname="placeholder2(1).svg"
   width="20"
   height="24"
   inkscape:version="0.92.1 r15371"><metadata
     id="metadata45"><rdf:RDF><cc:Work
         rdf:about=""><dc:format>image/svg+xml</dc:format><dc:type
           rdf:resource="http://purl.org/dc/dcmitype/StillImage" /><dc:title></dc:title></cc:Work></rdf:RDF></metadata><defs
     id="defs43" /><sodipodi:namedview
     pagecolor="#ffffff"
     bordercolor="#666666"
     borderopacity="1"
     objecttolerance="10"
     gridtolerance="10"
     guidetolerance="10"
     inkscape:pageopacity="0"
     inkscape:pageshadow="2"
     inkscape:window-width="1920"
     inkscape:window-height="1017"
     id="namedview41"
     showgrid="false"
     inkscape:zoom="20.85961"
     inkscape:cx="29.763512"
     inkscape:cy="4.3774364"
     inkscape:window-x="-8"
     inkscape:window-y="-8"
     inkscape:window-maximized="1"
     inkscape:current-layer="Layer_1" /><path
     style="fill:#999999;stroke-width:0.04687493"
     d="m 2.970707,16.970563 7.029411,7.02946 7.029459,-7.02946 c 3.882228,-3.88223 3.882228,-10.1766396 0,-14.0588696 v 0 c -3.882229,-3.88222996 -10.176642,-3.88222996 -14.05887,0 v 0 c -3.882276,3.88232 -3.882276,10.1766396 0,14.0588696 z"
     id="path2"
     inkscape:connector-curvature="0" /><circle
     style="fill:#e6e6e6;stroke-width:0.04687493"
     cx="10.000354"
     cy="9.9414368"
     r="7.0295525"
     id="circle4" /><path
     style="fill:#cccccc;stroke-width:0.04687493"
     d="m 5.356406,9.9412034 c 0,-3.88223 2.079091,-7.02946 4.643759,-7.02946 -3.882229,0 -7.029458,3.14718 -7.029458,7.02946 0,3.8822696 3.147183,7.0294096 7.029411,7.0294096 -2.564621,-5e-5 -4.643712,-3.14718 -4.643712,-7.0294096 z"
     id="path6"
     inkscape:connector-curvature="0" /><g
     id="g10"
     transform="translate(0,-488.00098)" /><g
     id="g12"
     transform="translate(0,-488.00098)" /><g
     id="g14"
     transform="translate(0,-488.00098)" /><g
     id="g16"
     transform="translate(0,-488.00098)" /><g
     id="g18"
     transform="translate(0,-488.00098)" /><g
     id="g20"
     transform="translate(0,-488.00098)" /><g
     id="g22"
     transform="translate(0,-488.00098)" /><g
     id="g24"
     transform="translate(0,-488.00098)" /><g
     id="g26"
     transform="translate(0,-488.00098)" /><g
     id="g28"
     transform="translate(0,-488.00098)" /><g
     id="g30"
     transform="translate(0,-488.00098)" /><g
     id="g32"
     transform="translate(0,-488.00098)" /><g
     id="g34"
     transform="translate(0,-488.00098)" /><g
     id="g36"
     transform="translate(0,-488.00098)" /><g
     id="g38"
     transform="translate(0,-488.00098)" /></svg>