<svg xmlns="http://www.w3.org/2000/svg" id="Capa_1" viewBox="0 0 490 490" width="512" height="512"><g fill="#006DF0"><path d="M245 0C150.5 0 73.5 76.6 73.5 171.5 73.5 266 245 490 245 490s171.5-224 171.5-318.4C416.5 76.6 339.5 0 245 0zm0 274.5c-56.8 0-103-46.3-103-103s46.3-103 103-103 103 46.3 103 103-46.2 103-103 103z"/><path d="M308 182.8h-17.5v-49.4c0-5.4-4.3-9.7-9.7-9.7-5.4 0-9.7 4.3-9.7 9.7v49.4h-15.6v-65.3c0-5.4-4.3-9.7-9.7-9.7-5.4 0-9.7 4.3-9.7 9.7v65.3h-15.6v-36.5c0-5.4-4.3-9.7-9.7-9.7s-9.7 4.3-9.7 9.7v36.5h-17.5c-5.4 0-9.7 4.3-9.7 9.7s4.3 9.7 9.7 9.7h125.6c5.4 0 9.7-4.3 9.7-9.7-1.2-5.4-5.5-9.7-10.9-9.7z"/></g></svg>