<svg xmlns="http://www.w3.org/2000/svg" width="20" height="24"><path fill="#999" d="M2.97 16.97L10 24l7.03-7.03c3.88-3.88 3.88-10.18 0-14.06C13.15-.92 6.85-.92 2.97 2.9-.9 6.8-.9 13.1 2.97 16.98z"/><circle cx="10" cy="9.94" r="7.03" fill="#e6e6e6"/><g fill="#999"><path d="M16 9.1l-5.57-4.77c-.2-.18-.5-.18-.72 0L4.2 9.1c-.23.2-.26.56-.06.8.2.23.55.25.8.05l5.2-4.46 5.16 4.4c.1.1.23.14.36.14.15 0 .3-.08.42-.2.2-.24.17-.6-.06-.8zm-7.8 6.5h.3v-1.37m3.13 0v1.36h.3"/><path d="M10.25 6.27c-.1-.1-.26-.1-.36 0l-4.2 3.6c-.1.06-.1.14-.1.22v5.2c0 .12.1.3.24.3h1.2l.67-3.1c.04-.15.13-.28.27-.36.04-.02.82-.45 1.85-.5l.13.27-.4 2.93.43.72h.06l.4-.73-.37-2.92.13-.27c1.03.06 1.8.5 1.85.5.13.1.22.22.25.37l.67 3.06h1.2c.14 0 .26-.14.26-.3v-5.2c0-.1-.02-.17-.1-.22zm-.18 5.28c-.78 0-1.4-.9-1.4-1.68 0-.78.62-1.4 1.4-1.4.78 0 1.4.62 1.4 1.4 0 .77-.62 1.68-1.4 1.68z"/></g><path fill="#ccc" fill-opacity=".54" d="M5.36 9.94C5.36 6.06 7.44 2.9 10 2.9c-3.88 0-7.03 3.16-7.03 7.04s3.15 7.03 7.03 7.03c-2.56 0-4.64-3.15-4.64-7.03z"/></svg>