<svg xmlns="http://www.w3.org/2000/svg" width="20" height="24"><path fill="#999" d="M2.97 16.97L10 24l7.03-7.03c3.88-3.88 3.88-10.18 0-14.06C13.15-.9 6.85-.9 2.97 2.9-.9 6.8-.9 13.1 2.97 16.98z"/><circle cx="10" cy="9.94" r="7.03" fill="#e6e6e6"/><g fill="#999"><path d="M10.2 12.9c1.52 0 2.76-1.25 2.76-2.78 0-1.53-1.24-2.77-2.77-2.77-1.6 0-2.8 1.24-2.8 2.77s1.2 2.78 2.8 2.78z"/><path d="M10.2 13.64c1.93 0 3.5-1.57 3.5-3.52 0-1.94-1.57-3.52-3.5-3.52-1.95 0-3.53 1.58-3.53 3.52 0 1.95 1.58 3.52 3.52 3.52zm0-6.5c1.63 0 2.97 1.34 2.97 2.98 0 1.65-1.34 2.98-2.98 2.98-1.7 0-3-1.33-3-2.98 0-1.64 1.3-2.98 3-2.98zm5.46 6.83l-.2-7.9c0-.17-.14-.3-.3-.3-.05 0-.1 0-.14.02h-.1c-.22.2-.94.9-1 1.9-.1 1.54.67 2.2.9 2.75l-.2 3.4c0 .16.36.3.53.3.17 0 .5-.14.5-.3zm-11.4-4.8l.53.25c0 .03.1.05.2.07l-.3 4.6c0 .1.3.2.5.2s.5-.1.5-.3l-.2-4.66.2-.1.4-.23c.25-.16.5-.54.5-.9v-2c0-.17-.17-.3-.3-.3-.2 0-.35.13-.35.3V8h-.1V6.1c0-.15-.14-.3-.3-.3-.18 0-.3.15-.3.3V8h-.2V6.2c0-.17-.15-.3-.3-.3-.2 0-.3.13-.3.3v1.87h-.2v-1.8c0-.17-.13-.3-.3-.3-.17 0-.3.13-.3.3V8.3c0 .33.22.7.53.86z"/></g><path fill="#ccc" fill-opacity=".54" d="M5.36 9.94C5.36 6.06 7.44 2.9 10 2.9c-3.88 0-7.03 3.16-7.03 7.04s3.15 7.03 7.03 7.03c-2.56 0-4.64-3.15-4.64-7.03z"/></svg>