<svg xmlns="http://www.w3.org/2000/svg" width="20" height="24"><path fill="#999" d="M2.97 16.97L10 24l7.03-7.03c3.88-3.88 3.88-10.18 0-14.06C13.15-.92 6.85-.92 2.97 2.9-.9 6.8-.9 13.1 2.97 16.98z"/><circle cx="10" cy="9.94" r="7.03" fill="#e6e6e6"/><g fill="#999"><path d="M16.15 10.27V8.82l1.4-.77L10 4.02 2.45 8.05l3 1.75v1.1h.04c-.08.05-.1.1-.1.14 0 .5 2.04.92 4.56.92 2.5 0 4.56-.42 4.56-.92 0-.05-.03-.1-.06-.13h.04V9.8l1.3-.8v1.27c-.12.06-.22.2-.22.36 0 .22.2.4.4.4.22 0 .4-.18.4-.4 0-.16-.1-.3-.25-.36zM10 11.6c-2.24 0-4.05-.26-4.05-.57 0-.3 1.8-.57 4.05-.57 2.24 0 4.05.26 4.05.57 0 .3-1.8.57-4.05.57zm4.44-2.64c-.3-.33-1.38-1.17-4.44-1.17-3.06 0-4.14.8-4.44 1.12v-.3s.88-1.3 4.44-1.3c3.56 0 4.44 1.3 4.44 1.3z"/><path d="M15.68 11.1l-.16 2.25c.48-.75.87-.47.87-.47V11.1c-.56.2-.76 0-.76 0z"/></g><path fill="#ccc" fill-opacity=".54" d="M5.36 9.94C5.36 6.06 7.44 2.9 10 2.9c-3.88 0-7.03 3.16-7.03 7.04s3.15 7.03 7.03 7.03c-2.56 0-4.64-3.15-4.64-7.03z"/><text x="9.92" y="14.65" fill="#999" style="line-height:1.25;text-align:center" font-size="40" font-family="sans-serif" letter-spacing="0" word-spacing="0" text-anchor="middle"><tspan x="9.92" y="14.65" style="text-align:center" font-size="5.33">0</tspan></text></svg>