<svg xmlns="http://www.w3.org/2000/svg" width="20" height="24"><path fill="#00f" d="M2.97 16.97L10 24l7.03-7.03c3.88-3.88 3.88-10.18 0-14.06C13.15-.94 6.85-.94 2.97 2.9-.9 6.8-.9 13.1 2.97 16.98z"/><circle cx="10" cy="9.94" r="7.03" fill="#e6e6e6"/><g fill="#00f"><path d="M16.15 11.98v-1.45l1.4-.77L10 5.73 2.45 9.76l3 1.75v1.14h.04c-.06.03-.08.08-.08.12 0 .5 2.04.92 4.56.92 2.5 0 4.56-.4 4.56-.92 0-.04-.03-.1-.06-.13l.04.02V11.5l1.3-.8v1.28c-.13.06-.23.2-.23.37 0 .2.2.4.4.4.22 0 .4-.2.4-.4 0-.17-.1-.3-.25-.37zM10 13.3c-2.24 0-4.05-.24-4.05-.56 0-.3 1.8-.57 4.05-.57 2.24 0 4.05.26 4.05.57 0 .32-1.8.57-4.05.57zm4.44-2.63c-.3-.32-1.38-1.17-4.44-1.17-3.06 0-4.14.85-4.44 1.17v-.3S6.44 9.04 10 9.04c3.56 0 4.44 1.3 4.44 1.3z"/><path d="M15.68 12.82l-.16 2.24c.48-.75.87-.46.87-.46v-1.78c-.54.2-.74 0-.74 0z"/></g><path fill="#ccc" fill-opacity=".54" d="M5.36 9.94C5.36 6.06 7.44 2.9 10 2.9c-3.88 0-7.03 3.16-7.03 7.04s3.15 7.03 7.03 7.03c-2.56 0-4.64-3.15-4.64-7.03z"/></svg>