<svg xmlns="http://www.w3.org/2000/svg" width="20" height="24"><path fill="#8b008b" d="M2.97 16.97L10 24l7.03-7.03c3.88-3.88 3.88-10.18 0-14.06C13.15-.9 6.85-.9 2.97 2.9-.9 6.8-.9 13.1 2.97 16.98z"/><circle cx="10" cy="9.94" r="7.03" fill="#e6e6e6"/><path fill="#8b008b" d="M12.3 14.77c0 .27.1.5.3.68.18.2.4.28.68.28.26 0 .5-.1.68-.28.18-.18.28-.4.28-.68 0-.26-.1-.5-.28-.68-.2-.2-.42-.3-.68-.3-.27 0-.5.1-.68.3-.2.1-.3.4-.3.6zm2.76-8.52c-.1-.1-.2-.14-.34-.14H5.7c-.02 0-.03-.1-.04-.1l-.06-.3s0-.1-.04-.2l-.1-.2-.15-.1H3.2c-.13 0-.24.06-.34.15-.1.1-.14.2-.14.3s.03.2.12.3c.1.1.2.15.34.15H4.7l1.34 6.2-.16.26-.22.47c-.06.1-.08.2-.08.3 0 .1.04.23.14.33s.2.14.34.14h7.7c.13 0 .24-.04.34-.13.1-.1.14-.2.14-.34s-.05-.24-.14-.34c-.1-.1-.2-.18-.34-.18H6.84c.12-.22.18-.4.18-.46 0-.03 0-.1-.02-.15 0-.06-.03-.13-.04-.2l-.04-.16 7.85-.9c.13 0 .23-.1.3-.18.1-.1.13-.2.13-.3V6.6a.5.5 0 0 0-.14-.35zm-9.48 8.52c0 .27.1.5.28.68.2.2.4.28.68.28.27 0 .5-.1.68-.28.2-.18.28-.4.28-.68 0-.26-.1-.5-.28-.68-.2-.2-.4-.3-.68-.3-.27 0-.5.1-.68.3-.2.1-.28.4-.28.6z"/><path fill="#ccc" fill-opacity=".54" d="M5.36 9.94C5.36 6.06 7.44 2.9 10 2.9c-3.88 0-7.03 3.16-7.03 7.04s3.15 7.03 7.03 7.03c-2.56 0-4.64-3.15-4.64-7.03z"/></svg>