<svg xmlns="http://www.w3.org/2000/svg" width="20" height="24"><path fill="#999" d="M2.97 16.97L10 24l7.03-7.03c3.88-3.88 3.88-10.18 0-14.06C13.15-.93 6.85-.93 2.97 2.9-.9 6.8-.9 13.1 2.97 16.98z"/><circle cx="10" cy="9.94" r="7.03" fill="#e6e6e6"/><path fill="#999" d="M14.32 13.37c-.1-.25-.36-.4-.6-.5l-1.62-.75-.78-.66-1.25 1.25.54 3.65v.03l-.53.77c0 .02-.02.02-.04.02s-.02 0-.03-.02l-.57-.77v-.03l.54-3.6-1.25-1.26-.8.65-1.6.75c-.25.1-.5.23-.6.5 0 0-1.77 4.2-.8 4.2h10.23c.96 0-.8-4.2-.8-4.2zm.1-5.75c.03 0 .06 0 .07-.03v-.1c0-.17-.05-.3-.07-.48l-.04-.32c0-.04-.05-.1-.1-.07h-.07v-1.1h.04l.1-.05c.12-.04.18-.13.18-.24 0-.12-.06-.2-.17-.25l-4.3-1.57c-.1-.02-.15-.02-.2 0L5.6 5.03c-.12.03-.18.12-.18.24 0 .1.06.2.17.24l1.6.6c-.16.37-.2.78-.2 1.2.02 2.6 1.53 4.17 2.92 4.17 1.37 0 2.9-1.54 2.92-4.13 0-.43-.04-.83-.15-1.18l1.16-.42v.96h-.06c-.03 0-.1.02-.1.07l-.1.78c0 .03 0 .05.05.07l.06.03m-3.73 3.2c-1.2 0-2.05-1.43-2.22-2.85C7.6 6.68 9.5 6.62 9.6 7.44c.03.26-.26.53-.23.63.16.5 2.83-1.67 2.8-.06 0 1.14-1.05 2.85-2.2 2.85z"/><path fill="#ccc" fill-opacity=".54" d="M5.36 9.94C5.36 6.06 7.44 2.9 10 2.9c-3.88 0-7.03 3.16-7.03 7.04s3.15 7.03 7.03 7.03c-2.56 0-4.64-3.15-4.64-7.03z"/></svg>