<svg xmlns="http://www.w3.org/2000/svg" width="45" height="50"><path fill="#ff507d" d="M40.8 17.2H23.4v7h17.4c.4 0 1-.2 1.2-.6l2.3-2.3c.3-.3.3-1 0-1.2L42 18c-.3-.3-.8-.5-1.2-.5z"/><path fill="#ffdc64" d="M6.5 26.4l-2.3 2.3c-.4.3-.4 1 0 1.2l2.3 2c.3.2.7.4 1.2.4h15.7v-7H7.7c-.5 0-1 .2-1.2.6z"/><path fill="#5b5d6e" d="M10.4 30.2h-.8c-.5 0-1-.4-1-1 0-.4.5-.8 1-.8h.8c.5 0 1 .4 1 1 0 .4-.5.8-1 .8zm7.8 0H14c-.6 0-1-.4-1-1 0-.4.4-.8 1-.8h4c.5 0 1 .4 1 1 0 .4-.5.8-1 .8z"/><path fill="#b4e66e" d="M3 7.4L.7 9.7c-.3.4-.3 1 0 1.3L3 13.3c.4.3.8.5 1.3.5h19v-7h-19c-.5 0-1 .3-1.3.6z"/><path fill="#a0d755" d="M20 7h3.3v6.8H20z"/><path fill="#ffc850" d="M20 26h3.3v6.8H20z"/><path fill="#d23c69" d="M23.4 17.2h3.4v7h-3.4z"/><path fill="#5b5d6e" d="M7 11.2H6c-.3 0-.7-.4-.7-1 0-.3.4-.7.8-.7h1c.8 0 1 .4 1 .8 0 .5-.2 1-1 1zm11.2 0h-7.8c-.4 0-.8-.4-.8-1 0-.3.4-.7.8-.7h7.8c.5 0 1 .4 1 .8 0 .5-.5 1-1 1z"/><path fill="#9b735a" d="M23 0c-.8.2-1.4 1-1.4 1.8V49c0 .6.4 1 1 1H24c.5 0 1-.4 1-1V1.8c0-1-1-2-2-1.7z"/><path fill="#5b5d6e" d="M39 21.6h-1c-.5 0-.8-.4-.8-1 0-.4.3-.8.8-.8h1c.4 0 .7.4.7 1 0 .4-.3.8-.8.8zm-4.4 0h-6c-.5 0-1-.4-1-1 0-.4.5-.8 1-.8h6c.5 0 .8.4.8 1 0 .4-.3.8-.8.8z"/><path fill="#8c5f50" d="M25 4.3V2.6h-1.6v-.8c0-.6.3-1.2.8-1.6-.3-.2-.7-.2-1-.2-1 .2-1.6 1-1.6 1.8V49c0 .6.4 1 1 1H24c-.4 0-.8-.4-.8-1V4.4z"/></svg>